<?xml version="1.0" encoding="utf-8"?>
<svg version="1.1" xmlns:xlink="http://www.w3.org/1999/xlink" width="30px" height="167px" xmlns="http://www.w3.org/2000/svg">
  <defs>
    <mask fill="white" id="clip23">
      <path d="M 0 161  C 0 161  0 149.184836122154  0 135.53261719328  C 0 132.846318937885  0 130.088895377297  0 127.336361843085  C 0 119.231279761533  0 111.168597186206  0 105.08909090909  C 0 70.0593939393933  0 0  0 0  L 24 0  L 24 105.08909090909  L 24 144.9  L 24 161  L 0 161  Z " fill-rule="evenodd" />
    </mask>
    <filter x="15px" y="477px" width="30px" height="167px" filterUnits="userSpaceOnUse" id="filter24">
      <feOffset dx="2" dy="2" in="SourceAlpha" result="shadowOffsetInner" />
      <feGaussianBlur stdDeviation="1.5" in="shadowOffsetInner" result="shadowGaussian" />
      <feComposite in2="shadowGaussian" operator="atop" in="SourceAlpha" result="shadowComposite" />
      <feColorMatrix type="matrix" values="0 0 0 0 0  0 0 0 0 0  0 0 0 0 0  0 0 0 0.349019607843137 0  " in="shadowComposite" />
    </filter>
    <g id="widget25">
      <path d="M 0 161  C 0 161  0 149.184836122154  0 135.53261719328  C 0 132.846318937885  0 130.088895377297  0 127.336361843085  C 0 119.231279761533  0 111.168597186206  0 105.08909090909  C 0 70.0593939393933  0 0  0 0  L 24 0  L 24 105.08909090909  L 24 144.9  L 24 161  L 0 161  Z " fill-rule="nonzero" fill="#d7d7d7" stroke="none" transform="matrix(1 0 0 1 16 478 )" />
      <path d="M 0 161  C 0 161  0 149.184836122154  0 135.53261719328  C 0 132.846318937885  0 130.088895377297  0 127.336361843085  C 0 119.231279761533  0 111.168597186206  0 105.08909090909  C 0 70.0593939393933  0 0  0 0  L 24 0  L 24 105.08909090909  L 24 144.9  L 24 161  L 0 161  Z " stroke-width="2" stroke-dasharray="3,1" stroke="#aaaaaa" fill="none" transform="matrix(1 0 0 1 16 478 )" mask="url(#clip23)" />
    </g>
  </defs>
  <g transform="matrix(1 0 0 1 -15 -477 )">
    <use xlink:href="#widget25" filter="url(#filter24)" />
    <use xlink:href="#widget25" />
  </g>
</svg>