<?xml version="1.0" encoding="utf-8"?>
<svg version="1.1" xmlns:xlink="http://www.w3.org/1999/xlink" width="191px" height="180px" xmlns="http://www.w3.org/2000/svg">
  <defs>
    <mask fill="white" id="clip30">
      <path d="M 191 90  L 156.62 180  L 34.38 180  L 0 90  L 34.38 0  L 156.62 0  L 191 90  Z " fill-rule="evenodd" />
    </mask>
  </defs>
  <g transform="matrix(1 0 0 1 -100 -155 )">
    <path d="M 191 90  L 156.62 180  L 34.38 180  L 0 90  L 34.38 0  L 156.62 0  L 191 90  Z " fill-rule="nonzero" fill="#aaaaaa" stroke="none" transform="matrix(1 0 0 1 100 155 )" />
    <path d="M 191 90  L 156.62 180  L 34.38 180  L 0 90  L 34.38 0  L 156.62 0  L 191 90  Z " stroke-width="2" stroke="#797979" fill="none" transform="matrix(1 0 0 1 100 155 )" mask="url(#clip30)" />
  </g>
</svg>