<?xml version="1.0" encoding="utf-8"?>
<svg version="1.1" xmlns:xlink="http://www.w3.org/1999/xlink" width="29px" height="30px" xmlns="http://www.w3.org/2000/svg">
  <g transform="matrix(1 0 0 1 -468 -143 )">
    <path d="M 14.5 28.6607142857143  C 14.6858974358974 28.6607142857143  14.7788461538462 28.5714285714286  14.7788461538462 28.3928571428571  C 14.7788461538462 28.2142857142857  14.6858974358974 28.125  14.5 28.125  C 13.8145032051282 28.125  13.224859775641 27.8878348214286  12.7310697115385 27.4135044642857  C 12.2372796474359 26.9391741071429  11.9903846153846 26.3727678571429  11.9903846153846 25.7142857142857  C 11.9903846153846 25.5357142857143  11.8974358974359 25.4464285714286  11.7115384615385 25.4464285714286  C 11.525641025641 25.4464285714286  11.4326923076923 25.5357142857143  11.4326923076923 25.7142857142857  C 11.4326923076923 26.5290178571429  11.7318709935897 27.2237723214286  12.3302283653846 27.7985491071429  C 12.9285857371795 28.3733258928571  13.651842948718 28.6607142857143  14.5 28.6607142857143  Z M 7.80769230769231 9.64285714285714  C 7.80769230769231 15.5803571428571  6.26241987179487 20.2232142857143  3.171875 23  L 25.828125 23  C 22.7375801282051 20.2232142857143  21.1923076923077 15.5803571428571  21.1923076923077 9.64285714285714  C 21.1923076923077 9.07366071428571  21.0528846153846 8.48772321428571  20.7740384615385 7.88504464285714  C 20.4951923076923 7.28236607142857  20.0943509615385 6.70758928571428  19.5715144230769 6.16071428571429  C 19.0486778846154 5.61383928571428  18.3428485576923 5.16462053571429  17.4540264423077 4.81305803571429  C 16.5652043269231 4.46149553571429  15.5805288461538 4.28571428571429  14.5 4.28571428571429  C 13.4194711538462 4.28571428571429  12.4347956730769 4.46149553571429  11.5459735576923 4.81305803571429  C 10.6571514423077 5.16462053571429  9.95132211538462 5.61383928571428  9.42848557692308 6.16071428571429  C 8.90564903846154 6.70758928571428  8.50480769230769 7.28236607142857  8.22596153846154 7.88504464285714  C 7.94711538461539 8.48772321428571  7.80769230769231 9.07366071428571  7.80769230769231 9.64285714285714  Z M 27.4140625 22.0982142857143  C 27.8904246794872 22.6116071428571  28.4190705128205 23.1026785714286  29 23.5714285714286  C 29 24.1517857142857  28.7792467948718 24.6540178571429  28.3377403846154 25.078125  C 27.896233974359 25.5022321428571  27.3733974358974 25.7142857142857  26.7692307692308 25.7142857142857  L 18.9615384615385 25.7142857142857  C 18.9615384615385 26.8973214285714  18.5258413461538 27.9073660714286  17.6544471153846 28.7444196428571  C 16.7830528846154 29.5814732142857  15.7315705128205 30  14.5 30  C 13.2684294871795 30  12.2169471153846 29.5814732142857  11.3455528846154 28.7444196428571  C 10.4741586538462 27.9073660714286  10.0384615384615 26.8973214285714  10.0384615384615 25.7142857142857  L 2.23076923076923 25.7142857142857  C 1.62660256410256 25.7142857142857  1.10376602564103 25.5022321428571  0.662259615384615 25.078125  C 0.220753205128205 24.6540178571429  0 24.1517857142857  0 23.5714285714286  C 0.580929487179487 23.1026785714286  1.10957532051282 22.6116071428571  1.5859375 22.0982142857143  C 2.06229967948718 21.5848214285714  2.55608974358974 20.91796875  3.06730769230769 20.09765625  C 3.57852564102564 19.27734375  4.01131810897436 18.3928571428571  4.36568509615385 17.4441964285714  C 4.72005208333333 16.4955357142857  5.01051682692308 15.3459821428571  5.23707932692308 13.9955357142857  C 5.46364182692308 12.6450892857143  5.57692307692308 11.1941964285714  5.57692307692308 9.64285714285714  C 5.57692307692308 7.94642857142857  6.25661057692308 6.36997767857143  7.61598557692308 4.91350446428571  C 8.97536057692308 3.45703125  10.7588141025641 2.57254464285714  12.9663461538462 2.26004464285714  C 12.8733974358974 2.04799107142857  12.8269230769231 1.83035714285714  12.8269230769231 1.60714285714286  C 12.8269230769231 1.16071428571428  12.9895833333333 0.781249999999999  13.3149038461538 0.46875  C 13.6402243589744 0.156250000000001  14.0352564102564 0  14.5 0  C 14.9647435897436 0  15.3597756410256 0.156250000000001  15.6850961538462 0.46875  C 16.0104166666667 0.781249999999999  16.1730769230769 1.16071428571428  16.1730769230769 1.60714285714286  C 16.1730769230769 1.83035714285714  16.1266025641026 2.04799107142857  16.0336538461538 2.26004464285714  C 18.2411858974359 2.57254464285714  20.0246394230769 3.45703125  21.3840144230769 4.91350446428571  C 22.7433894230769 6.36997767857143  23.4230769230769 7.94642857142857  23.4230769230769 9.64285714285714  C 23.4230769230769 11.1941964285714  23.5363581730769 12.6450892857143  23.7629206730769 13.9955357142857  C 23.9894831730769 15.3459821428571  24.2799479166667 16.4955357142857  24.6343149038462 17.4441964285714  C 24.9886818910256 18.3928571428571  25.4214743589744 19.27734375  25.9326923076923 20.09765625  C 26.4439102564103 20.91796875  26.9377003205128 21.5848214285714  27.4140625 22.0982142857143  Z " fill-rule="nonzero" fill="#000000" stroke="none" transform="matrix(1 0 0 1 468 143 )" />
  </g>
</svg>