<?xml version="1.0" encoding="utf-8"?>
<svg version="1.1" xmlns:xlink="http://www.w3.org/1999/xlink" width="134px" height="122px" xmlns="http://www.w3.org/2000/svg">
  <defs>
    <mask fill="white" id="clip9">
      <path d="M 134 61  L 109.88 122  L 24.12 122  L 0 61  L 24.12 0  L 109.88 0  L 134 61  Z " fill-rule="evenodd" />
    </mask>
  </defs>
  <g transform="matrix(1 0 0 1 -128 -185 )">
    <path d="M 134 61  L 109.88 122  L 24.12 122  L 0 61  L 24.12 0  L 109.88 0  L 134 61  Z " fill-rule="nonzero" fill="#ffffff" stroke="none" transform="matrix(1 0 0 1 128 185 )" />
    <path d="M 134 61  L 109.88 122  L 24.12 122  L 0 61  L 24.12 0  L 109.88 0  L 134 61  Z " stroke-width="2" stroke="#797979" fill="none" transform="matrix(1 0 0 1 128 185 )" mask="url(#clip9)" />
  </g>
</svg>