<?xml version="1.0" encoding="utf-8"?>
<svg version="1.1" xmlns:xlink="http://www.w3.org/1999/xlink" width="30px" height="167px" xmlns="http://www.w3.org/2000/svg">
  <defs>
    <mask fill="white" id="clip13">
      <path d="M 0 161  C 0 161  0 149.184836122154  0 135.53261719328  C 0 132.846318937885  0 130.088895377297  0 127.336361843085  C 0 119.231279761533  0 111.168597186206  0 105.08909090909  C 0 85.7150442867837  0 55.6256985042251  0 32.600143030753  C 0 31.517186414964  0 30.4498555064464  0 29.400000052251  C 0 27.470476226865  0 25.5999819890177  0 23.8000008381549  C 0 9.75272232224859  0 0  0 0  L 24 0  L 24 105.08909090909  L 24 144.9  L 24 161  L 0 161  Z " fill-rule="evenodd" />
    </mask>
    <filter x="27px" y="422px" width="30px" height="167px" filterUnits="userSpaceOnUse" id="filter14">
      <feOffset dx="2" dy="2" in="SourceAlpha" result="shadowOffsetInner" />
      <feGaussianBlur stdDeviation="1.5" in="shadowOffsetInner" result="shadowGaussian" />
      <feComposite in2="shadowGaussian" operator="atop" in="SourceAlpha" result="shadowComposite" />
      <feColorMatrix type="matrix" values="0 0 0 0 0  0 0 0 0 0  0 0 0 0 0  0 0 0 0.349019607843137 0  " in="shadowComposite" />
    </filter>
    <g id="widget15">
      <path d="M 0 161  C 0 161  0 149.184836122154  0 135.53261719328  C 0 132.846318937885  0 130.088895377297  0 127.336361843085  C 0 119.231279761533  0 111.168597186206  0 105.08909090909  C 0 85.7150442867837  0 55.6256985042251  0 32.600143030753  C 0 31.517186414964  0 30.4498555064464  0 29.400000052251  C 0 27.470476226865  0 25.5999819890177  0 23.8000008381549  C 0 9.75272232224859  0 0  0 0  L 24 0  L 24 105.08909090909  L 24 144.9  L 24 161  L 0 161  Z " fill-rule="nonzero" fill="#8389c4" stroke="none" transform="matrix(1 0 0 1 28 423 )" />
      <path d="M 0 161  C 0 161  0 149.184836122154  0 135.53261719328  C 0 132.846318937885  0 130.088895377297  0 127.336361843085  C 0 119.231279761533  0 111.168597186206  0 105.08909090909  C 0 85.7150442867837  0 55.6256985042251  0 32.600143030753  C 0 31.517186414964  0 30.4498555064464  0 29.400000052251  C 0 27.470476226865  0 25.5999819890177  0 23.8000008381549  C 0 9.75272232224859  0 0  0 0  L 24 0  L 24 105.08909090909  L 24 144.9  L 24 161  L 0 161  Z " stroke-width="2" stroke-dasharray="3,1" stroke="#aaaaaa" fill="none" transform="matrix(1 0 0 1 28 423 )" mask="url(#clip13)" />
    </g>
  </defs>
  <g transform="matrix(1 0 0 1 -27 -422 )">
    <use xlink:href="#widget15" filter="url(#filter14)" />
    <use xlink:href="#widget15" />
  </g>
</svg>