<?xml version="1.0" encoding="utf-8"?>
<svg version="1.1" xmlns:xlink="http://www.w3.org/1999/xlink" width="56px" height="49px" xmlns="http://www.w3.org/2000/svg">
  <defs>
    <mask fill="white" id="clip21">
      <path d="M 56 24.5  L 45.92 49  L 10.08 49  L 0 24.5  L 10.08 0  L 45.92 0  L 56 24.5  Z " fill-rule="evenodd" />
    </mask>
  </defs>
  <g transform="matrix(1 0 0 1 -119 -221 )">
    <path d="M 56 24.5  L 45.92 49  L 10.08 49  L 0 24.5  L 10.08 0  L 45.92 0  L 56 24.5  Z " fill-rule="nonzero" fill="#ffffff" stroke="none" transform="matrix(1 0 0 1 119 221 )" />
    <path d="M 56 24.5  L 45.92 49  L 10.08 49  L 0 24.5  L 10.08 0  L 45.92 0  L 56 24.5  Z " stroke-width="2" stroke="#797979" fill="none" transform="matrix(1 0 0 1 119 221 )" mask="url(#clip21)" />
  </g>
</svg>