<?xml version="1.0" encoding="utf-8"?>
<svg version="1.1" xmlns:xlink="http://www.w3.org/1999/xlink" width="33px" height="24px" xmlns="http://www.w3.org/2000/svg">
  <g transform="matrix(1 0 0 1 -1135 -17 )">
    <path d="M 15.390134529148 18  L 16.4260089686099 18  L 18.5717488789238 16.0227272727273  L 15.7600896860987 13.4318181818182  L 13.6143497757848 15.4090909090909  L 13.6143497757848 16.3636363636364  L 15.390134529148 16.3636363636364  L 15.390134529148 18  Z M 24.5465246636771 6.28977272727273  C 24.7561659192825 6.09659090909091  24.762331838565 5.90909090909091  24.5650224215247 5.72727272727273  C 24.3677130044843 5.54545454545454  24.1642376681614 5.55113636363636  23.9545964125561 5.74431818181818  L 17.4803811659193 11.7102272727273  C 17.2707399103139 11.9034090909091  17.2645739910314 12.0909090909091  17.4618834080717 12.2727272727273  C 17.6591928251121 12.4545454545455  17.862668161435 12.4488636363636  18.0723094170404 12.2556818181818  L 24.5465246636771 6.28977272727273  Z M 25.6748878923767 15.3579545454545  C 25.9215246636771 15.4488636363636  26.0448430493274 15.6136363636364  26.0448430493274 15.8522727272727  L 26.0448430493274 19.0909090909091  C 26.0448430493274 20.4431818181818  25.5238228699552 21.5994318181818  24.4817825112108 22.5596590909091  C 23.4397421524664 23.5198863636364  22.1849775784753 24  20.7174887892377 24  L 5.32735426008969 24  C 3.85986547085202 24  2.60510089686099 23.5198863636364  1.56306053811659 22.5596590909091  C 0.521020179372197 21.5994318181818  0 20.4431818181818  0 19.0909090909091  L 0 4.90909090909091  C 0 3.55681818181818  0.521020179372197 2.40056818181818  1.56306053811659 1.44034090909091  C 2.60510089686099 0.480113636363634  3.85986547085202 0  5.32735426008969 0  L 20.7174887892377 0  C 21.4943946188341 0  22.2158071748879 0.142045454545453  22.8817264573991 0.426136363636362  C 23.0667040358744 0.505681818181817  23.1776905829596 0.636363636363636  23.2146860986547 0.818181818181817  C 23.2516816143498 1.01136363636364  23.1961883408072 1.17613636363636  23.0482062780269 1.3125  L 22.1418161434978 2.14772727272727  C 21.9691704035874 2.30681818181818  21.7718609865471 2.35227272727273  21.5498878923767 2.28409090909091  C 21.2662556053812 2.21590909090909  20.9887892376682 2.18181818181818  20.7174887892377 2.18181818181818  L 5.32735426008969 2.18181818181818  C 4.51345291479821 2.18181818181818  3.81670403587444 2.44886363636363  3.23710762331839 2.98295454545455  C 2.65751121076233 3.51704545454545  2.36771300448431 4.15909090909091  3 4.90909090909091  L 3 19.0909090909091  C 2.36771300448431 19.8409090909091  2.65751121076233 20.4829545454545  3.23710762331839 21.0170454545455  C 3.81670403587444 21.5511363636364  4.51345291479821 21.8181818181818  5.32735426008969 21.8181818181818  L 20.7174887892377 21.8181818181818  C 21.5313901345291 21.8181818181818  22.2281390134529 21.5511363636364  22.807735426009 21.0170454545455  C 23.387331838565 20.4829545454545  23.677130044843 19.8409090909091  23.677130044843 19.0909090909091  L 23.677130044843 16.9431818181818  C 23.677130044843 16.7954545454545  23.7326233183857 16.6704545454545  23.8436098654709 16.5681818181818  L 25.027466367713 15.4772727272727  C 25.2124439461883 15.3068181818182  25.4282511210762 15.2670454545455  25.6748878923767 15.3579545454545  Z M 11.8385650224215 14.7272727272727  L 24.2690582959641 3.27272727272727  L 29.5964125560538 8.18181818181818  L 17.1659192825112 19.6363636363636  L 11.8385650224215 19.6363636363636  L 11.8385650224215 14.7272727272727  Z M 33 4.36363636363636  C 33 4.81818181818182  32.8273542600897 5.20454545454545  32.4820627802691 5.52272727272727  L 30.780269058296 7.09090909090909  L 25.4529147982063 2.18181818181818  L 27.1547085201794 0.613636363636362  C 27.5 0.295454545454543  27.9192825112108 0.136363636363638  28.4125560538117 0.136363636363638  C 28.9058295964126 0.136363636363638  29.3251121076233 0.295454545454543  29.6704035874439 0.613636363636362  L 32.4820627802691 3.20454545454546  C 32.8273542600897 3.52272727272727  33 3.90909090909091  33 4.36363636363636  Z " fill-rule="nonzero" fill="#8389bd" stroke="none" transform="matrix(1 0 0 1 1135 17 )" />
  </g>
</svg>