<?xml version="1.0" encoding="utf-8"?>
<svg version="1.1" xmlns:xlink="http://www.w3.org/1999/xlink" width="27px" height="24px" xmlns="http://www.w3.org/2000/svg">
  <g transform="matrix(1 0 0 1 -922 -17 )">
    <path d="M 25.6224489795918 4.796875  C 26.0330132052821 4.953125  26.3517406962785 5.17708333333333  26.578631452581 5.46875  C 27.0108043217287 6.0625  27.1080432172869 6.734375  26.8703481392557 7.484375  L 22.4135654261705 21.640625  C 22.2082833133253 22.3072916666667  21.7950180072029 22.8671875  21.1737695078031 23.3203125  C 20.5525210084034 23.7734375  19.890756302521 24  19.1884753901561 24  L 4.22989195678271 24  C 3.39795918367347 24  2.59573829531813 23.7213541666667  1.82322929171669 23.1640625  C 1.05072028811525 22.6067708333333  0.513205282112845 21.921875  0.210684273709484 21.109375  C -0.0486194477791116 20.4114583333333  -0.0594237695078031 19.75  0.178271308523409 19.125  C 0.178271308523409 19.0833333333333  0.194477791116447 18.9427083333333  0.226890756302521 18.703125  C 0.259303721488595 18.4635416666667  0.280912364945978 18.2708333333333  0.29171668667467 18.125  C 0.302521008403361 18.0416666666667  0.286314525810324 17.9296875  0.243097238895558 17.7890625  C 0.199879951980792 17.6484375  0.183673469387755 17.546875  0.194477791116447 17.484375  C 0.21608643457383 17.3697916666667  0.259303721488595 17.2604166666667  0.324129651860744 17.15625  C 0.388955582232893 17.0520833333333  0.478091236494598 16.9296875  0.591536614645858 16.7890625  C 0.704981992797119 16.6484375  0.794117647058823 16.5260416666667  0.858943577430972 16.421875  C 1.10744297719088 16.0260416666667  1.35054021608643 15.5494791666667  1.58823529411765 14.9921875  C 1.82593037214886 14.4348958333333  1.98799519807923 13.9583333333333  2.07442977190876 13.5625  C 2.10684273709484 13.4583333333333  2.10954381752701 13.3020833333333  2.08253301320528 13.09375  C 2.05552220888355 12.8854166666667  2.05282112845138 12.7395833333333  2.07442977190876 12.65625  C 2.10684273709484 12.5416666666667  2.19867947178872 12.3958333333333  2.3499399759904 12.21875  C 2.50120048019208 12.0416666666667  2.59303721488595 11.921875  2.62545018007203 11.859375  C 2.85234093637455 11.484375  3.07923169267707 11.0052083333333  3.30612244897959 10.421875  C 3.53301320528211 9.83854166666666  3.66806722689076 9.36979166666666  3.71128451380552 9.015625  C 3.72208883553421 8.921875  3.70858343337335 8.75520833333333  3.67076830732293 8.515625  C 3.63295318127251 8.27604166666667  3.63565426170468 8.13020833333333  3.67887154861945 8.078125  C 3.72208883553421 7.94270833333333  3.84093637454982 7.78385416666666  4.03541416566627 7.6015625  C 4.22989195678271 7.41927083333333  4.34873949579832 7.30208333333333  4.39195678271309 7.25  C 4.59723889555822 6.97916666666667  4.82683073229292 6.5390625  5.08073229291717 5.9296875  C 5.33463385354142 5.3203125  5.48319327731093 4.81770833333333  5.52641056422569 4.421875  C 5.53721488595438 4.33854166666666  5.52100840336135 4.20572916666666  5.47779111644658 4.0234375  C 5.43457382953181 3.84114583333333  5.42376950780312 3.703125  5.4453781512605 3.609375  C 5.46698679471789 3.52604166666666  5.515606242497 3.43229166666666  5.59123649459784 3.328125  C 5.66686674669868 3.22395833333333  5.7641056422569 3.10416666666666  5.88295318127251 2.96875  C 6.00180072028812 2.83333333333333  6.09363745498199 2.72395833333333  6.15846338535414 2.640625  C 6.24489795918367 2.515625  6.33403361344538 2.35677083333333  6.42587034813926 2.1640625  C 6.51770708283313 1.97135416666666  6.59873949579832 1.7890625  6.66896758703481 1.6171875  C 6.73919567827131 1.4453125  6.82563025210084 1.2578125  6.92827130852341 1.0546875  C 7.03091236494598 0.851562500000001  7.13625450180072 0.684895833333332  7.24429771908763 0.554687499999999  C 7.35234093637455 0.424479166666663  7.49549819927971 0.302083333333331  7.67376950780312 0.1875  C 7.85204081632653 0.0729166666666634  8.04651860744298 0.013020833333333  8.25720288115246 0.00781250000000089  C 8.46788715486194 0.00260416666666341  8.72448979591837 0.0312500000000009  9.02701080432173 0.09375  L 9.01080432172869 0.140625  C 9.42136854741897 0.046875  9.6968787515006 0  9.83733493397359 0  L 22.1704681872749 0  C 22.9699879951981 0  23.5858343337335 0.291666666666664  24.0180072028812 0.875000000000001  C 24.4501800720288 1.45833333333333  24.547418967587 2.13541666666666  24.3097238895558 2.90625  L 19.8691476590636 17.0625  C 19.4801920768307 18.3020833333333  19.09393757503 19.1015625  18.7103841536615 19.4609375  C 18.3268307322929 19.8203125  17.6326530612245 20  16.6278511404562 20  L 2.54441776710684 20  C 2.25270108043217 20  2.04741896758703 20.078125  1.92857142857143 20.234375  C 1.80972388955582 20.4010416666667  1.80432172869148 20.625  1.91236494597839 20.90625  C 2.17166866746699 21.6354166666667  2.94957983193277 22  4.24609843937575 22  L 19.2046818727491 22  C 19.5180072028812 22  19.8205282112845 21.9192708333333  20.1122448979592 21.7578125  C 20.4039615846339 21.5963541666667  20.593037214886 21.3802083333333  20.6794717887155 21.109375  L 25.5414165666267 5.6875  C 25.6170468187275 5.45833333333333  25.6440576230492 5.16145833333333  25.6224489795918 4.796875  Z M 9.67527010804322 4.5  L 9.33493397358944 5.5  C 9.29171668667467 5.63541666666666  9.30252100840336 5.75260416666666  9.36734693877551 5.8515625  C 9.43217286914766 5.95052083333333  9.54021608643458 6  9.69147659063625 6  L 19.5450180072029 6  C 19.6854741896759 6  19.8232292917167 5.95052083333333  19.9582833133253 5.8515625  C 20.093337334934 5.75260416666666  20.1824729891957 5.63541666666666  20.2256902761104 5.5  L 20.5660264105642 4.5  C 20.609243697479 4.36458333333333  20.5984393757503 4.24739583333333  20.5336134453782 4.1484375  C 20.468787515006 4.04947916666667  20.3607442977191 4  20.2094837935174 4  L 10.3559423769508 4  C 10.2154861944778 4  10.077731092437 4.04947916666667  9.94267707082833 4.1484375  C 9.80762304921969 4.24739583333333  9.71848739495798 4.36458333333333  9.67527010804322 4.5  Z M 8.33013205282113 8.5  L 7.98979591836735 9.5  C 7.94657863145258 9.63541666666667  7.95738295318127 9.75260416666667  8.02220888355342 9.8515625  C 8.08703481392557 9.95052083333333  8.19507803121248 10  8.34633853541417 10  L 18.1998799519808 10  C 18.3403361344538 10  18.4780912364946 9.95052083333333  18.6131452581032 9.8515625  C 18.7481992797119 9.75260416666667  18.8373349339736 9.63541666666667  18.8805522208884 9.5  L 19.2208883553421 8.5  C 19.2641056422569 8.36458333333333  19.2533013205282 8.24739583333333  19.1884753901561 8.1484375  C 19.1236494597839 8.04947916666667  19.015606242497 8  18.8643457382953 8  L 9.01080432172869 8  C 8.8703481392557 8  8.73259303721489 8.04947916666667  8.59753901560624 8.1484375  C 8.4624849939976 8.24739583333333  8.3733493397359 8.36458333333333  8.33013205282113 8.5  Z " fill-rule="nonzero" fill="#8389bd" stroke="none" transform="matrix(1 0 0 1 922 17 )" />
  </g>
</svg>