<?xml version="1.0" encoding="utf-8"?>
<svg version="1.1" xmlns:xlink="http://www.w3.org/1999/xlink" width="32px" height="32px" xmlns="http://www.w3.org/2000/svg">
  <g transform="matrix(1 0 0 1 -38 -585 )">
    <path d="M 18.1458333333333 21.8541666666667  C 18.2708333333333 21.9791666666667  18.3333333333333 22.1388888888889  18.3333333333333 22.3333333333333  L 18.3333333333333 25.6666666666667  C 18.3333333333333 25.8611111111111  18.2708333333333 26.0208333333333  18.1458333333333 26.1458333333333  C 18.0208333333333 26.2708333333333  17.8611111111111 26.3333333333333  17.6666666666667 26.3333333333333  L 14.3333333333333 26.3333333333333  C 14.1388888888889 26.3333333333333  13.9791666666667 26.2708333333333  13.8541666666667 26.1458333333333  C 13.7291666666667 26.0208333333333  13.6666666666667 25.8611111111111  13.6666666666667 25.6666666666667  L 13.6666666666667 22.3333333333333  C 13.6666666666667 22.1388888888889  13.7291666666667 21.9791666666667  13.8541666666667 21.8541666666667  C 13.9791666666667 21.7291666666667  14.1388888888889 21.6666666666667  14.3333333333333 21.6666666666667  L 17.6666666666667 21.6666666666667  C 17.8611111111111 21.6666666666667  18.0208333333333 21.7291666666667  18.1458333333333 21.8541666666667  Z M 21.3854166666667 7.53125  C 22.90625 8.77430555555555  23.6666666666667 10.2638888888889  23.6666666666667 12  C 23.6666666666667 12.6944444444444  23.5625 13.3194444444444  23.3541666666667 13.875  C 23.1458333333333 14.4305555555556  22.8298611111111 14.9097222222222  22.40625 15.3125  C 21.9826388888889 15.7152777777778  21.6215277777778 16.0208333333333  21.3229166666667 16.2291666666667  C 21.0243055555556 16.4375  20.6111111111111 16.6875  20.0833333333333 16.9791666666667  C 19.6388888888889 17.2291666666667  19.3159722222222 17.4236111111111  19.1145833333333 17.5625  C 18.9131944444444 17.7013888888889  18.7326388888889 17.8680555555556  18.5729166666667 18.0625  C 18.4131944444444 18.2569444444444  18.3333333333333 18.4583333333333  18.3333333333333 18.6666666666667  L 18.3333333333333 19.3333333333333  C 18.3333333333333 19.5277777777778  18.2708333333333 19.6875  18.1458333333333 19.8125  C 18.0208333333333 19.9375  17.8611111111111 20  17.6666666666667 20  L 14.3333333333333 20  C 14.1388888888889 20  13.9791666666667 19.9375  13.8541666666667 19.8125  C 13.7291666666667 19.6875  13.6666666666667 19.5277777777778  13.6666666666667 19.3333333333333  L 13.6666666666667 17.9166666666667  C 13.6666666666667 17.4305555555556  13.7395833333333 16.9826388888889  13.8854166666667 16.5729166666667  C 14.03125 16.1631944444444  14.1979166666667 15.8333333333333  14.3854166666667 15.5833333333333  C 14.5729166666667 15.3333333333333  14.84375 15.0868055555556  15.1979166666667 14.84375  C 15.5520833333333 14.6006944444444  15.8368055555556 14.4236111111111  16.0520833333333 14.3125  C 16.2673611111111 14.2013888888889  16.5763888888889 14.0555555555556  16.9791666666667 13.875  C 17.7152777777778 13.5277777777778  18.2361111111111 13.2291666666667  18.5416666666667 12.9791666666667  C 18.8472222222222 12.7291666666667  19 12.3888888888889  19 11.9583333333333  C 19 11.375  18.6979166666667 10.8784722222222  18.09375 10.46875  C 17.4895833333333 10.0590277777778  16.8263888888889 9.85416666666667  16.1041666666667 9.85416666666667  C 15.3263888888889 9.85416666666667  14.6666666666667 10.0416666666667  14.125 10.4166666666667  C 13.7222222222222 10.6944444444444  13.1666666666667 11.2708333333333  12.4583333333333 12.1458333333333  C 12.3333333333333 12.3125  12.1597222222222 12.3958333333333  11.9375 12.3958333333333  C 11.7847222222222 12.3958333333333  11.6527777777778 12.3541666666667  11.5416666666667 12.2708333333333  L 9.29166666666667 10.5625  C 9.15277777777778 10.4652777777778  9.06944444444444 10.3263888888889  9.04166666666667 10.1458333333333  C 9.01388888888889 9.96527777777778  9.04861111111111 9.80555555555555  9.14583333333333 9.66666666666667  C 10.8402777777778 7  13.2638888888889 5.66666666666667  16.4166666666667 5.66666666666667  C 18.2083333333333 5.66666666666667  19.8645833333333 6.28819444444444  21.3854166666667 7.53125  Z M 21.1770833333333 3.72916666666667  C 19.53125 3.02083333333333  17.8055555555556 2.66666666666667  16 2.66666666666667  C 14.1944444444444 2.66666666666667  12.46875 3.02083333333333  10.8229166666667 3.72916666666667  C 9.17708333333333 4.4375  7.76041666666667 5.38541666666667  6.57291666666667 6.57291666666667  C 5.38541666666667 7.76041666666667  4.4375 9.17708333333333  3.72916666666667 10.8229166666667  C 3.02083333333333 12.46875  2.66666666666667 14.1944444444444  2.66666666666667 16  C 2.66666666666667 17.8055555555556  3.02083333333333 19.53125  3.72916666666667 21.1770833333333  C 4.4375 22.8229166666667  5.38541666666667 24.2395833333333  6.57291666666667 25.4270833333333  C 7.76041666666667 26.6145833333333  9.17708333333333 27.5625  10.8229166666667 28.2708333333333  C 12.46875 28.9791666666667  14.1944444444444 29.3333333333333  16 29.3333333333333  C 17.8055555555556 29.3333333333333  19.53125 28.9791666666667  21.1770833333333 28.2708333333333  C 22.8229166666667 27.5625  24.2395833333333 26.6145833333333  25.4270833333333 25.4270833333333  C 26.6145833333333 24.2395833333333  27.5625 22.8229166666667  28.2708333333333 21.1770833333333  C 28.9791666666667 19.53125  29.3333333333333 17.8055555555556  29.3333333333333 16  C 29.3333333333333 14.1944444444444  28.9791666666667 12.46875  28.2708333333333 10.8229166666667  C 27.5625 9.17708333333333  26.6145833333333 7.76041666666667  25.4270833333333 6.57291666666667  C 24.2395833333333 5.38541666666667  22.8229166666667 4.4375  21.1770833333333 3.72916666666667  Z M 29.8541666666667 7.96875  C 31.2847222222222 10.4201388888889  32 13.0972222222222  32 16  C 32 18.9027777777778  31.2847222222222 21.5798611111111  29.8541666666667 24.03125  C 28.4236111111111 26.4826388888889  26.4826388888889 28.4236111111111  24.03125 29.8541666666667  C 21.5798611111111 31.2847222222222  18.9027777777778 32  16 32  C 13.0972222222222 32  10.4201388888889 31.2847222222222  7.96875 29.8541666666667  C 5.51736111111111 28.4236111111111  3.57638888888889 26.4826388888889  2.14583333333333 24.03125  C 0.715277777777778 21.5798611111111  0 18.9027777777778  0 16  C 0 13.0972222222222  0.715277777777778 10.4201388888889  2.14583333333333 7.96875  C 3.57638888888889 5.51736111111111  5.51736111111111 3.57638888888889  7.96875 2.14583333333333  C 10.4201388888889 0.715277777777775  13.0972222222222 0  16 0  C 18.9027777777778 0  21.5798611111111 0.715277777777775  24.03125 2.14583333333333  C 26.4826388888889 3.57638888888889  28.4236111111111 5.51736111111111  29.8541666666667 7.96875  Z " fill-rule="nonzero" fill="#8288c2" stroke="none" transform="matrix(1 0 0 1 38 585 )" />
  </g>
</svg>