<?xml version="1.0" encoding="utf-8"?>
<svg version="1.1" xmlns:xlink="http://www.w3.org/1999/xlink" width="21px" height="24px" xmlns="http://www.w3.org/2000/svg">
  <g transform="matrix(1 0 0 1 -1212 -17 )">
    <path d="M 20.860546875 17.3515625  C 20.953515625 18.1380208333333  21 18.9739583333333  21 19.859375  C 21 20.9947916666667  20.658203125 21.96875  19.974609375 22.78125  C 19.291015625 23.59375  18.46796875 24  17.50546875 24  L 3.49453125 24  C 2.53203125 24  1.708984375 23.59375  1.025390625 22.78125  C 0.341796875 21.96875  0 20.9947916666667  0 19.859375  C 0 18.9739583333333  0.0464843750000001 18.1380208333333  0.139453125 17.3515625  C 0.232421875 16.5651041666667  0.4046875 15.7734375  0.65625 14.9765625  C 0.9078125 14.1796875  1.227734375 13.4973958333333  1.616015625 12.9296875  C 2.004296875 12.3619791666667  2.518359375 11.8984375  3.158203125 11.5390625  C 3.798046875 11.1796875  4.53359375 11  5.36484375 11  C 6.79765625 12.3333333333333  8.509375 13  10.5 13  C 12.490625 13  14.20234375 12.3333333333333  15.63515625 11  C 16.46640625 11  17.201953125 11.1796875  17.841796875 11.5390625  C 18.481640625 11.8984375  18.995703125 12.3619791666667  19.383984375 12.9296875  C 19.772265625 13.4973958333333  20.0921875 14.1796875  20.34375 14.9765625  C 20.5953125 15.7734375  20.767578125 16.5651041666667  20.860546875 17.3515625  Z M 14.954296875 1.7578125  C 16.184765625 2.9296875  16.8 4.34375  16.8 6  C 16.8 7.65625  16.184765625 9.0703125  14.954296875 10.2421875  C 13.723828125 11.4140625  12.2390625 12  10.5 12  C 8.7609375 12  7.276171875 11.4140625  6.045703125 10.2421875  C 4.815234375 9.0703125  4.2 7.65625  4.2 6  C 4.2 4.34375  4.815234375 2.9296875  6.045703125 1.7578125  C 7.276171875 0.5859375  8.7609375 0  10.5 0  C 12.2390625 0  13.723828125 0.5859375  14.954296875 1.7578125  Z " fill-rule="nonzero" fill="#8389bd" stroke="none" transform="matrix(1 0 0 1 1212 17 )" />
  </g>
</svg>