<?xml version="1.0" encoding="utf-8"?>
<svg version="1.1" xmlns:xlink="http://www.w3.org/1999/xlink" width="35px" height="40px" xmlns="http://www.w3.org/2000/svg">
  <defs>
    <filter x="57px" y="366px" width="35px" height="40px" filterUnits="userSpaceOnUse" id="filter27">
      <feOffset dx="1" dy="1" in="SourceAlpha" result="shadowOffsetInner" />
      <feGaussianBlur stdDeviation="2.5" in="shadowOffsetInner" result="shadowGaussian" />
      <feComposite in2="shadowGaussian" operator="atop" in="SourceAlpha" result="shadowComposite" />
      <feColorMatrix type="matrix" values="0 0 0 0 0  0 0 0 0 0  0 0 0 0 0  0 0 0 0.698039215686274 0  " in="shadowComposite" />
    </filter>
    <g id="widget28">
      <path d="M 73.5 399.102000869141  C 68.7 391.94738515024  61.5 387.6546157189  61.5 380.5  C 61.5 376.785714285714  63.9 370.5  73.5 370.5  C 83.1 370.5  85.5 376.785714285714  85.5 380.5  C 85.5 387.6546157189  78.3 391.94738515024  73.5 399.102000869141  Z " fill-rule="nonzero" fill="#000000" stroke="none" />
      <path d="M 73.5 400  C 68.5 392.5  61 388  61 380.5  C 61 376.6  63.5 370  73.5 370  C 83.5 370  86 376.6  86 380.5  C 86 388  78.5 392.5  73.5 400  Z M 73.5 398.204001738281  C 78.1 391.394770300481  85 387.3092314378  85 380.5  C 85 376.971428571429  82.7 371  73.5 371  C 64.3 371  62 376.971428571429  62 380.5  C 62 387.3092314378  68.9 391.394770300481  73.5 398.204001738281  Z " fill-rule="nonzero" fill="#ffffff" stroke="none" />
    </g>
  </defs>
  <g transform="matrix(1 0 0 1 -57 -366 )">
    <use xlink:href="#widget28" filter="url(#filter27)" />
    <use xlink:href="#widget28" />
  </g>
</svg>