<?xml version="1.0" encoding="utf-8"?>
<svg version="1.1" xmlns:xlink="http://www.w3.org/1999/xlink" width="17px" height="11px" xmlns="http://www.w3.org/2000/svg">
  <g transform="matrix(1 0 0 1 -238 -302 )">
    <path d="M 10.0662525879917 5.24649298597194  C 10.1835748792271 5.31997327989312  10.2422360248447 5.40447561790247  10.2422360248447 5.5  C 10.2422360248447 5.59552438209753  10.1835748792271 5.68002672010688  10.0662525879917 5.75350701402806  L 1.86542443064182 10.8897795591182  C 1.74810213940649 10.9632598530394  1.61318150448585 11  1.46066252587992 11  C 1.30814354727398 11  1.17322291235335 10.9632598530394  1.05590062111801 10.8897795591182  L 0.175983436853002 10.3386773547094  C 0.0586611456176674 10.2651970607882  0 10.1806947227789  0 10.0851703406814  C 0 9.98964595858383  0.0586611456176674 9.90514362057448  0.175983436853002 9.83166332665331  L 7.09213250517598 5.5  L 0.175983436853002 1.16833667334669  C 0.0586611456176674 1.09485637942552  0 1.01035404141617  0 0.914829659318638  C 0 0.819305277221107  0.0586611456176674 0.734802939211756  0.175983436853002 0.661322645290581  L 1.05590062111801 0.110220440881764  C 1.17322291235335 0.0367401469605875  1.30814354727398 0  1.46066252587992 0  C 1.61318150448585 0  1.74810213940649 0.0367401469605875  1.86542443064182 0.110220440881764  L 10.0662525879917 5.24649298597194  Z M 16.824016563147 5.24649298597194  C 16.9413388543823 5.31997327989312  17 5.40447561790247  17 5.5  C 17 5.59552438209753  16.9413388543823 5.68002672010688  16.824016563147 5.75350701402806  L 8.6231884057971 10.8897795591182  C 8.50586611456177 10.9632598530394  8.37094547964113 11  8.2184265010352 11  C 8.06590752242926 11  7.93098688750863 10.9632598530394  7.81366459627329 10.8897795591182  L 6.93374741200828 10.3386773547094  C 6.81642512077295 10.2651970607882  6.75776397515528 10.1806947227789  6.75776397515528 10.0851703406814  C 6.75776397515528 9.98964595858383  6.81642512077295 9.90514362057448  6.93374741200828 9.83166332665331  L 13.8498964803313 5.5  L 6.93374741200828 1.16833667334669  C 6.81642512077295 1.09485637942552  6.75776397515528 1.01035404141617  6.75776397515528 0.914829659318638  C 6.75776397515528 0.819305277221107  6.81642512077295 0.734802939211756  6.93374741200828 0.661322645290581  L 7.81366459627329 0.110220440881764  C 7.93098688750863 0.0367401469605875  8.06590752242926 0  8.2184265010352 0  C 8.37094547964113 0  8.50586611456177 0.0367401469605875  8.6231884057971 0.110220440881764  L 16.824016563147 5.24649298597194  Z " fill-rule="nonzero" fill="#000000" stroke="none" transform="matrix(1 0 0 1 238 302 )" />
  </g>
</svg>