<?xml version="1.0" encoding="utf-8"?>
<svg version="1.1" xmlns:xlink="http://www.w3.org/1999/xlink" width="26px" height="20px" xmlns="http://www.w3.org/2000/svg">
  <g transform="matrix(1 0 0 1 -677 -96 )">
    <path d="M 3.43861607142857 16.4192708333333  C 3.62239583333333 16.2543402777778  3.71428571428571 16.0590277777778  3.71428571428571 15.8333333333333  C 3.71428571428571 15.6076388888889  3.62239583333333 15.4123263888889  3.43861607142857 15.2473958333333  C 3.25483630952381 15.0824652777778  3.03720238095238 15  2.78571428571429 15  C 2.53422619047619 15  2.31659226190476 15.0824652777778  2.1328125 15.2473958333333  C 1.94903273809524 15.4123263888889  1.85714285714286 15.6076388888889  1.85714285714286 15.8333333333333  C 1.85714285714286 16.0590277777778  1.94903273809524 16.2543402777778  2.1328125 16.4192708333333  C 2.31659226190476 16.5842013888889  2.53422619047619 16.6666666666667  2.78571428571429 16.6666666666667  C 3.03720238095238 16.6666666666667  3.25483630952381 16.5842013888889  3.43861607142857 16.4192708333333  Z M 23.5915178571429 9.50520833333333  C 23.9590773809524 9.17534722222222  24.1428571428571 8.78472222222222  24.1428571428571 8.33333333333333  C 24.1428571428571 7.890625  23.9542410714286 7.50217013888889  23.5770089285714 7.16796875  C 23.1997767857143 6.83376736111111  22.7693452380952 6.66666666666667  22.2857142857143 6.66666666666667  L 13.9285714285714 6.66666666666667  C 13.9285714285714 6.49305555555555  14.0011160714286 6.28255208333333  14.1462053571429 6.03515625  C 14.2912946428571 5.78776041666667  14.4508928571429 5.54904513888889  14.625 5.31901041666667  C 14.7991071428571 5.08897569444444  14.9587053571429 4.79383680555555  15.1037946428571 4.43359375  C 15.2488839285714 4.07335069444444  15.3214285714286 3.70659722222222  15.3214285714286 3.33333333333333  C 15.3214285714286 2.75173611111111  15.106212797619 2.32855902777778  14.67578125 2.06380208333333  C 14.245349702381 1.79904513888889  13.686755952381 1.66666666666667  13 1.66666666666667  C 12.7678571428571 1.66666666666667  12.3325892857143 2.26996527777778  11.6941964285714 3.4765625  C 11.4620535714286 3.85850694444444  11.2831101190476 4.140625  11.1573660714286 4.32291666666667  C 10.7704613095238 4.87847222222222  10.2287946428571 5.5078125  9.53236607142857 6.2109375  C 8.84561011904762 6.9140625  8.35714285714286 7.37413194444444  8.06696428571429 7.59114583333333  C 7.39955357142857 8.0859375  6.72247023809524 8.33333333333333  6.03571428571429 8.33333333333333  L 5.57142857142857 8.33333333333333  L 5.57142857142857 16.6666666666667  L 6.03571428571429 16.6666666666667  C 6.73214285714286 16.6666666666667  7.53980654761905 16.8055555555556  8.45870535714286 17.0833333333333  C 9.37760416666667 17.3611111111111  10.3134300595238 17.6388888888889  11.2661830357143 17.9166666666667  C 12.2189360119048 18.1944444444444  13.0870535714286 18.3333333333333  13.8705357142857 18.3333333333333  C 15.6986607142857 18.3333333333333  16.6127232142857 17.6085069444444  16.6127232142857 16.1588541666667  C 16.6127232142857 15.9331597222222  16.5885416666667 15.6901041666667  16.5401785714286 15.4296875  C 16.8303571428571 15.2907986111111  17.0600818452381 15.0629340277778  17.2293526785714 14.74609375  C 17.3986235119048 14.4292534722222  17.4832589285714 14.1102430555556  17.4832589285714 13.7890625  C 17.4832589285714 13.4678819444444  17.3962053571429 13.1684027777778  17.2220982142857 12.890625  C 17.7347470238095 12.4565972222222  17.9910714285714 11.9401041666667  17.9910714285714 11.3411458333333  C 17.9910714285714 11.1241319444444  17.9427083333333 10.8832465277778  17.8459821428571 10.6184895833333  C 17.749255952381 10.3537326388889  17.6283482142857 10.1475694444444  17.4832589285714 10  L 22.2857142857143 10  C 22.7886904761905 10  23.2239583333333 9.83506944444444  23.5915178571429 9.50520833333333  Z M 24.8973214285714 5.98958333333333  C 25.6324404761905 6.64930555555555  26 7.42621527777778  26 8.3203125  C 26 9.23177083333333  25.6348586309524 10.0173611111111  24.9045758928571 10.6770833333333  C 24.1742931547619 11.3368055555556  23.3013392857143 11.6666666666667  22.2857142857143 11.6666666666667  L 19.8337053571429 11.6666666666667  C 19.7950148809524 12.2048611111111  19.6160714285714 12.7213541666667  19.296875 13.2161458333333  C 19.3258928571429 13.3984375  19.3404017857143 13.5850694444444  19.3404017857143 13.7760416666667  C 19.3404017857143 14.6527777777778  19.0502232142857 15.4253472222222  18.4698660714286 16.09375  C 18.4795386904762 17.3003472222222  18.0684523809524 18.2530381944444  17.2366071428571 18.9518229166667  C 16.4047619047619 19.6506076388889  15.3069196428571 20  13.9430803571429 20  C 12.6566220238095 20  11.0993303571429 19.7005208333333  9.27120535714286 19.1015625  C 7.68489583333333 18.5894097222222  6.60639880952381 18.3333333333333  6.03571428571429 18.3333333333333  L 1.85714285714286 18.3333333333333  C 1.34449404761905 18.3333333333333  0.906808035714286 18.1705729166667  0.544084821428571 17.8450520833333  C 0.181361607142857 17.51953125  0 17.1267361111111  0 16.6666666666667  L 0 8.33333333333333  C 0 7.87326388888889  0.181361607142857 7.48046875  0.544084821428571 7.15494791666667  C 0.906808035714286 6.82942708333333  1.34449404761905 6.66666666666667  1.85714285714286 6.66666666666667  L 6.03571428571429 6.66666666666667  C 6.13244047619048 6.66666666666667  6.23642113095238 6.64713541666667  6.34765625 6.60807291666667  C 6.45889136904762 6.56901041666667  6.57254464285714 6.50824652777778  6.68861607142857 6.42578125  C 6.8046875 6.34331597222222  6.91350446428571 6.26519097222222  7.01506696428571 6.19140625  C 7.11662946428571 6.11762152777778  7.23270089285714 6.01996527777778  7.36328125 5.8984375  C 7.49386160714286 5.77690972222222  7.59300595238095 5.68359375  7.66071428571429 5.61848958333333  C 7.72842261904762 5.55338541666667  7.8203125 5.46006944444444  7.93638392857143 5.33854166666667  C 8.05245535714286 5.21701388888889  8.12016369047619 5.14322916666667  8.13950892857143 5.1171875  C 8.76822916666667 4.47482638888889  9.25186011904762 3.91493055555555  9.59040178571429 3.4375  C 9.71614583333333 3.25520833333333  9.87574404761905 2.98611111111111  10.0691964285714 2.63020833333333  C 10.2626488095238 2.27430555555555  10.4415922619048 1.96180555555555  10.6060267857143 1.69270833333333  C 10.7704613095238 1.42361111111111  10.9663318452381 1.15017361111111  11.1936383928571 0.872395833333333  C 11.4209449404762 0.594618055555554  11.6869419642857 0.379774305555554  11.9916294642857 0.227864583333333  C 12.2963169642857 0.0759548611111094  12.6324404761905 0  13 0  C 14.2090773809524 0  15.207775297619 0.290798611111109  15.99609375 0.872395833333333  C 16.784412202381 1.45399305555555  17.1785714285714 2.27430555555555  17.1785714285714 3.33333333333333  C 17.1785714285714 3.92361111111111  17.0721726190476 4.47916666666667  16.859375 5  L 22.2857142857143 5  C 23.2916666666667 5  24.1622023809524 5.32986111111111  24.8973214285714 5.98958333333333  Z " fill-rule="nonzero" fill="#000000" stroke="none" transform="matrix(1 0 0 1 677 96 )" />
  </g>
</svg>