<?xml version="1.0" encoding="utf-8"?>
<svg version="1.1" xmlns:xlink="http://www.w3.org/1999/xlink" width="34px" height="27px" xmlns="http://www.w3.org/2000/svg">
  <g transform="matrix(1 0 0 1 -393 -282 )">
    <path d="M 23.2042410714286 15.134765625  C 23.4319196428571 15.544921875  23.7924107142857 15.75  24.2857142857143 15.75  L 30.0725446428571 15.75  C 30.0093005952381 15.8203125  29.9460565476191 15.8818359375  29.8828125 15.9345703125  C 29.819568452381 15.9873046875  29.7626488095238 16.03125  29.7120535714286 16.06640625  L 29.6551339285714 16.13671875  L 17.8348214285714 26.68359375  C 17.6071428571429 26.89453125  17.328869047619 27  17 27  C 16.671130952381 27  16.3928571428571 26.89453125  16.1651785714286 26.68359375  L 4.32589285714286 16.1015625  C 4.26264880952381 16.078125  4.12983630952381 15.9609375  3.92745535714286 15.75  L 10.9285714285714 15.75  C 11.2068452380952 15.75  11.4566592261905 15.6708984375  11.6780133928571 15.5126953125  C 11.8993675595238 15.3544921875  12.0416666666667 15.15234375  12.1049107142857 14.90625  L 13.4330357142857 9.966796875  L 17.0379464285714 21.69140625  C 17.1138392857143 21.92578125  17.2593005952381 22.119140625  17.4743303571429 22.271484375  C 17.6893601190476 22.423828125  17.9360119047619 22.5  18.2142857142857 22.5  C 18.4799107142857 22.5  18.7202380952381 22.423828125  18.9352678571429 22.271484375  C 19.1502976190476 22.119140625  19.2957589285714 21.92578125  19.3716517857143 21.69140625  L 22.1417410714286 13.166015625  L 23.2042410714286 15.134765625  Z M 31.5904017857143 2.1796875  C 33.1968005952381 3.6328125  34 5.6484375  34 8.2265625  C 34 9.92578125  33.3485863095238 11.68359375  32.0457589285714 13.5  L 25.0446428571429 13.5  L 22.9386160714286 9.615234375  C 22.8374255952381 9.416015625  22.6761532738095 9.2578125  22.4547991071429 9.140625  C 22.2334449404762 9.0234375  22.0026041666667 8.9765625  21.7622767857143 9  C 21.1930803571429 9.05859375  20.8389136904762 9.328125  20.6997767857143 9.80859375  L 18.2522321428571 17.3671875  L 14.5334821428571 5.30859375  C 14.4575892857143 5.07421875  14.3089657738095 4.880859375  14.0876116071429 4.728515625  C 13.8662574404762 4.576171875  13.616443452381 4.5  13.3381696428571 4.5  C 13.0598958333333 4.5  12.813244047619 4.5791015625  12.5982142857143 4.7373046875  C 12.3831845238095 4.8955078125  12.2440476190476 5.09765625  12.1808035714286 5.34375  L 9.97991071428571 13.5  L 1.95424107142857 13.5  C 0.65141369047619 11.68359375  0 9.92578125  0 8.2265625  C 0 5.6484375  0.803199404761905 3.6328125  2.40959821428571 2.1796875  C 4.01599702380952 0.7265625  6.23586309523809 0  9.06919642857143 0  C 9.85342261904762 0  10.6534598214286 0.125976562499998  11.4693080357143 0.377929687500001  C 12.28515625 0.629882812499998  13.0440848214286 0.969726562499998  13.74609375 1.3974609375  C 14.4481026785714 1.8251953125  15.0520833333333 2.2265625  15.5580357142857 2.6015625  C 16.0639880952381 2.9765625  16.5446428571429 3.375  17 3.796875  C 17.4553571428571 3.375  17.9360119047619 2.9765625  18.4419642857143 2.6015625  C 18.9479166666667 2.2265625  19.5518973214286 1.8251953125  20.25390625 1.3974609375  C 20.9559151785714 0.969726562499998  21.71484375 0.629882812499998  22.5306919642857 0.377929687500001  C 23.3465401785714 0.125976562499998  24.1465773809524 0  24.9308035714286 0  C 27.7641369047619 0  29.9840029761905 0.7265625  31.5904017857143 2.1796875  Z " fill-rule="nonzero" fill="#000000" stroke="none" transform="matrix(1 0 0 1 393 282 )" />
  </g>
</svg>