<?xml version="1.0" encoding="utf-8"?>
<svg version="1.1" xmlns:xlink="http://www.w3.org/1999/xlink" width="16px" height="15px" xmlns="http://www.w3.org/2000/svg">
  <g transform="matrix(1 0 0 1 -320 -186 )">
    <path d="M 10.9326923076923 9.18714555765596  L 11.4038461538462 8.74291115311909  L 13.875 6.37996219281663  L 10.4519230769231 5.88846880907372  L 9.81730769230769 5.79395085066163  L 9.52884615384615 5.22684310018904  L 8 2.18336483931947  L 8 11.2854442344045  L 8.56730769230769 11.578449905482  L 11.625 13.1663516068053  L 11.0480769230769 9.8109640831758  L 10.9326923076923 9.18714555765596  Z M 15.9807692307692 5.70415879017013  C 16.0384615384615 5.87744171392565  15.9615384615385 6.06490233144297  15.75 6.26654064272212  L 12.2596153846154 9.6124763705104  L 13.0865384615385 14.3383742911153  C 13.1185897435897 14.5463137996219  13.099358974359 14.7085696282294  13.0288461538462 14.8251417769376  C 12.9583333333333 14.9417139256459  12.849358974359 15  12.7019230769231 15  C 12.5929487179487 15  12.4647435897436 14.9621928166352  12.3173076923077 14.8865784499055  L 8 12.65595463138  L 3.68269230769231 14.8865784499055  C 3.53525641025641 14.9621928166352  3.40705128205128 15  3.29807692307692 15  C 3.15064102564103 15  3.04166666666667 14.9417139256459  2.97115384615385 14.8251417769376  C 2.90064102564103 14.7085696282294  2.88141025641026 14.5463137996219  2.91346153846154 14.3383742911153  L 3.74038461538462 9.6124763705104  L 0.240384615384615 6.26654064272212  C 0.0352564102564102 6.06490233144297  -0.0384615384615385 5.87744171392565  0.0192307692307692 5.70415879017013  C 0.0769230769230769 5.53087586641462  0.25 5.42218021424071  0.538461538461538 5.37807183364839  L 5.36538461538462 4.68809073724008  L 7.52884615384615 0.387523629489602  C 7.65705128205128 0.1291745431632  7.81410256410256 0  8 0  C 8.17948717948718 0  8.33653846153846 0.1291745431632  8.47115384615385 0.387523629489602  L 10.6346153846154 4.68809073724008  L 15.4615384615385 5.37807183364839  C 15.75 5.42218021424071  15.9230769230769 5.53087586641462  15.9807692307692 5.70415879017013  Z " fill-rule="nonzero" fill="#8288c2" stroke="none" transform="matrix(1 0 0 1 320 186 )" />
  </g>
</svg>