<?xml version="1.0" encoding="utf-8"?>
<svg version="1.1" xmlns:xlink="http://www.w3.org/1999/xlink" width="20px" height="13px" xmlns="http://www.w3.org/2000/svg">
  <g transform="matrix(1 0 0 1 -42 -144 )">
    <path d="M 13.2604166666667 12.4019097222222  C 13.3090277777778 12.4771412037037  13.3333333333333 12.5561342592593  13.3333333333333 12.6388888888889  C 13.3333333333333 12.7366898148148  13.3003472222222 12.8213252314815  13.234375 12.8927951388889  C 13.1684027777778 12.9642650462963  13.0902777777778 13  13 13  L 3 13  C 2.94444444444444 13  2.89756944444444 12.9924768518519  2.859375 12.9774305555556  C 2.82118055555556 12.9623842592593  2.78993055555556 12.9360532407407  2.765625 12.8984375  C 2.74131944444444 12.8608217592593  2.72222222222222 12.8307291666667  2.70833333333333 12.8081597222222  C 2.69444444444444 12.7855902777778  2.68402777777778 12.7423321759259  2.67708333333333 12.6783854166667  C 2.67013888888889 12.6144386574074  2.66666666666667 12.5711805555556  2.66666666666667 12.5486111111111  L 2.66666666666667 12.4019097222222  L 2.66666666666667 12.2777777777778  L 2.66666666666667 10.4722222222222  L 2.66666666666667 5.77777777777778  L 0.666666666666667 5.77777777777778  C 0.486111111111111 5.77777777777778  0.329861111111111 5.70630787037037  0.197916666666667 5.56336805555556  C 0.0659722222222222 5.42042824074074  0 5.25115740740741  0 5.05555555555556  C 0 4.875  0.0520833333333333 4.72077546296296  0.15625 4.59288194444444  L 3.48958333333333 0.259548611111111  C 3.62152777777778 0.0940393518518516  3.79166666666667 0.0112847222222225  4 0.0112847222222225  C 4.20833333333333 0.0112847222222225  4.37847222222222 0.0940393518518516  4.51041666666667 0.259548611111111  L 7.84375 4.59288194444444  C 7.94791666666667 4.72077546296296  8 4.875  8 5.05555555555556  C 8 5.25115740740741  7.93402777777778 5.42042824074074  7.80208333333333 5.56336805555556  C 7.67013888888889 5.70630787037037  7.51388888888889 5.77777777777778  7.33333333333333 5.77777777777778  L 5.33333333333333 5.77777777777778  L 5.33333333333333 10.1111111111111  L 11.3333333333333 10.1111111111111  C 11.4444444444444 10.1111111111111  11.53125 10.1524884259259  11.59375 10.2352430555556  L 13.2604166666667 12.4019097222222  Z M 19.8020833333333 7.43663194444444  C 19.9340277777778 7.57957175925926  20 7.74884259259259  20 7.94444444444444  C 20 8.125  19.9479166666667 8.27922453703704  19.84375 8.40711805555556  L 16.5104166666667 12.7404513888889  C 16.3715277777778 12.9134837962963  16.2013888888889 13  16 13  C 15.7986111111111 13  15.6284722222222 12.9134837962963  15.4895833333333 12.7404513888889  L 12.15625 8.40711805555556  C 12.0520833333333 8.27922453703704  12 8.125  12 7.94444444444444  C 12 7.74884259259259  12.0659722222222 7.57957175925926  12.1979166666667 7.43663194444444  C 12.3298611111111 7.29369212962963  12.4861111111111 7.22222222222222  12.6666666666667 7.22222222222222  L 14.6666666666667 7.22222222222222  L 14.6666666666667 2.88888888888889  L 8.66666666666667 2.88888888888889  C 8.55555555555556 2.88888888888889  8.46875 2.84375  8.40625 2.75347222222222  L 6.73958333333333 0.586805555555555  C 6.69097222222222 0.519097222222223  6.66666666666667 0.44386574074074  6.66666666666667 0.361111111111111  C 6.66666666666667 0.263310185185184  6.69965277777778 0.178674768518518  6.765625 0.107204861111111  C 6.83159722222222 0.0357349537037018  6.90972222222222 0  7 0  L 17 0  C 17.0555555555556 0  17.1024305555556 0.00752314814814692  17.140625 0.0225694444444451  C 17.1788194444444 0.0376157407407404  17.2100694444444 0.0639467592592582  17.234375 0.1015625  C 17.2586805555556 0.13917824074074  17.2777777777778 0.169270833333334  17.2916666666667 0.191840277777777  C 17.3055555555556 0.214409722222223  17.3159722222222 0.257667824074073  17.3229166666667 0.321614583333334  C 17.3298611111111 0.385561342592591  17.3333333333333 0.428819444444445  17.3333333333333 0.451388888888889  L 17.3333333333333 0.598090277777777  L 17.3333333333333 0.722222222222223  L 17.3333333333333 2.52777777777778  L 17.3333333333333 7.22222222222222  L 19.3333333333333 7.22222222222222  C 19.5138888888889 7.22222222222222  19.6701388888889 7.29369212962963  19.8020833333333 7.43663194444444  Z " fill-rule="nonzero" fill="#8389bd" stroke="none" transform="matrix(1 0 0 1 42 144 )" />
  </g>
</svg>