<?xml version="1.0" encoding="utf-8"?>
<svg version="1.1" xmlns:xlink="http://www.w3.org/1999/xlink" width="20px" height="17px" xmlns="http://www.w3.org/2000/svg">
  <g transform="matrix(1 0 0 1 -42 -261 )">
    <path d="M 12.265625 10.42578125  C 13.3193108974359 9.53014823717949  13.8461538461538 8.45232371794872  13.8461538461538 7.19230769230769  C 13.8461538461538 5.93229166666667  13.3193108974359 4.8544671474359  12.265625 3.95883413461538  C 11.2119391025641 3.06320112179487  9.94391025641026 2.61538461538462  8.46153846153846 2.61538461538462  C 6.97916666666667 2.61538461538462  5.71113782051282 3.06320112179487  4.65745192307692 3.95883413461538  C 3.60376602564103 4.8544671474359  3.07692307692308 5.93229166666667  3.07692307692308 7.19230769230769  C 3.07692307692308 8.45232371794872  3.60376602564103 9.53014823717949  4.65745192307692 10.42578125  C 5.71113782051282 11.3214142628205  6.97916666666667 11.7692307692308  8.46153846153846 11.7692307692308  C 9.94391025641026 11.7692307692308  11.2119391025641 11.3214142628205  12.265625 10.42578125  Z M 19.5552884615385 14.7728365384615  C 19.8517628205128 15.0248397435897  20 15.3313301282051  20 15.6923076923077  C 20 16.0464743589744  19.8477564102564 16.3529647435897  19.5432692307692 16.6117788461538  C 19.2387820512821 16.8705929487179  18.8782051282051 17  18.4615384615385 17  C 18.0288461538462 17  17.6682692307692 16.8705929487179  17.3798076923077 16.6117788461538  L 13.2572115384615 13.1177884615385  C 11.8229166666667 13.9623397435897  10.224358974359 14.3846153846154  8.46153846153846 14.3846153846154  C 7.31570512820513 14.3846153846154  6.21995192307692 14.1956129807692  5.17427884615385 13.8176081730769  C 4.12860576923077 13.4396033653846  3.22716346153846 12.9287860576923  2.46995192307692 12.28515625  C 1.71274038461538 11.6415264423077  1.11177884615385 10.8753004807692  0.667067307692308 9.98647836538462  C 0.222355769230769 9.09765625  0 8.16626602564102  0 7.19230769230769  C 0 6.21834935897436  0.222355769230769 5.28695913461538  0.667067307692308 4.39813701923077  C 1.11177884615385 3.50931490384615  1.71274038461538 2.74308894230769  2.46995192307692 2.09945913461538  C 3.22716346153846 1.45582932692308  4.12860576923077 0.945012019230769  5.17427884615385 0.567007211538462  C 6.21995192307692 0.189002403846153  7.31570512820513 0  8.46153846153846 0  C 9.6073717948718 0  10.703125 0.189002403846153  11.7487980769231 0.567007211538462  C 12.7944711538462 0.945012019230769  13.6959134615385 1.45582932692308  14.453125 2.09945913461538  C 15.2103365384615 2.74308894230769  15.8112980769231 3.50931490384615  16.2560096153846 4.39813701923077  C 16.7007211538462 5.28695913461538  16.9230769230769 6.21834935897436  16.9230769230769 7.19230769230769  C 16.9230769230769 8.69070512820513  16.4262820512821 10.0494791666667  15.4326923076923 11.2686298076923  L 19.5552884615385 14.7728365384615  Z " fill-rule="nonzero" fill="#8389bd" stroke="none" transform="matrix(1 0 0 1 42 261 )" />
  </g>
</svg>