<?xml version="1.0" encoding="utf-8"?>
<svg version="1.1" xmlns:xlink="http://www.w3.org/1999/xlink" width="20px" height="17px" xmlns="http://www.w3.org/2000/svg">
  <g transform="matrix(1 0 0 1 -42 -302 )">
    <path d="M 18.9795918367347 3.39778645833333  C 19.2837134853942 3.50846354166667  19.5198079231693 3.66710069444444  19.68787515006 3.87369791666667  C 20.0080032012805 4.29427083333333  20.0800320128051 4.77018229166667  19.9039615846339 5.30143229166667  L 16.6026410564226 15.3287760416667  C 16.4505802320928 15.8009982638889  16.1444577831132 16.1975911458333  15.6842737094838 16.5185546875  C 15.2240896358543 16.8395182291667  14.733893557423 17  14.2136854741897 17  L 3.13325330132053 17  C 2.51700680272109 17  1.92276910764306 16.8026258680556  1.35054021608643 16.4078776041667  C 0.778311324529812 16.0131293402778  0.38015206082433 15.5279947916667  0.156062424969988 14.9524739583333  C -0.0360144057623049 14.4581163194444  -0.0440176070428171 13.9895833333333  0.132052821128451 13.546875  C 0.132052821128451 13.5173611111111  0.14405762304922 13.4177517361111  0.168067226890756 13.248046875  C 0.192076830732293 13.0783420138889  0.208083233293317 12.9418402777778  0.21608643457383 12.8385416666667  C 0.224089635854342 12.7795138888889  0.212084833933573 12.7001953125  0.180072028811525 12.6005859375  C 0.148059223689476 12.5009765625  0.136054421768707 12.4290364583333  0.14405762304922 12.384765625  C 0.160064025610244 12.3036024305556  0.192076830732293 12.2261284722222  0.240096038415366 12.15234375  C 0.288115246098439 12.0785590277778  0.354141656662665 11.9918619791667  0.438175270108043 11.8922526041667  C 0.522208883553421 11.7926432291667  0.588235294117647 11.7059461805556  0.63625450180072 11.6321614583333  C 0.820328131252501 11.3517795138889  1.00040016006403 11.0142144097222  1.17647058823529 10.6194661458333  C 1.35254101640656 10.2247178819444  1.47258903561425 9.88715277777778  1.53661464585834 9.60677083333333  C 1.56062424969988 9.53298611111111  1.56262505002001 9.42230902777778  1.54261704681873 9.27473958333333  C 1.52260904361745 9.12717013888889  1.52060824329732 9.02387152777778  1.53661464585834 8.96484375  C 1.56062424969988 8.88368055555556  1.62865146058423 8.78038194444444  1.7406962785114 8.65494791666667  C 1.85274109643858 8.52951388888889  1.92076830732293 8.44466145833333  1.94477791116447 8.400390625  C 2.11284513805522 8.134765625  2.28091236494598 7.79535590277778  2.44897959183673 7.38216145833333  C 2.61704681872749 6.96896701388889  2.71708683473389 6.63693576388889  2.74909963985594 6.38606770833333  C 2.75710284113645 6.31966145833333  2.74709883953581 6.20160590277778  2.71908763505402 6.03190104166667  C 2.69107643057223 5.86219618055556  2.69307723089236 5.75889756944444  2.72509003601441 5.72200520833333  C 2.75710284113645 5.62608506944444  2.84513805522209 5.51356336805555  2.98919567827131 5.38444010416667  C 3.13325330132053 5.25531684027778  3.22128851540616 5.17230902777778  3.25330132052821 5.13541666666667  C 3.40536214485794 4.94357638888889  3.57543017206883 4.6318359375  3.76350540216086 4.2001953125  C 3.9515806322529 3.7685546875  4.06162464985994 3.41254340277778  4.09363745498199 3.13216145833333  C 4.10164065626251 3.07313368055555  4.08963585434174 2.97905815972222  4.05762304921969 2.84993489583333  C 4.02561024409764 2.72081163194444  4.01760704281713 2.623046875  4.03361344537815 2.556640625  C 4.04961984793918 2.49761284722222  4.08563425370148 2.43120659722222  4.14165666266507 2.357421875  C 4.19767907162865 2.28363715277778  4.26970788315326 2.19878472222222  4.3577430972389 2.10286458333333  C 4.44577831132453 2.00694444444444  4.51380552220888 1.92947048611111  4.56182472989196 1.87044270833333  C 4.62585034013606 1.78190104166667  4.69187675070028 1.66937934027778  4.75990396158463 1.53287760416667  C 4.82793117246899 1.39637586805555  4.88795518207283 1.26725260416667  4.93997599039616 1.1455078125  C 4.99199679871949 1.02376302083333  5.05602240896359 0.890950520833333  5.13205282112845 0.7470703125  C 5.20808323329332 0.603190104166667  5.28611444577831 0.48513454861111  5.36614645858343 0.392903645833333  C 5.44617847138856 0.300672743055553  5.55222088835534 0.213975694444443  5.68427370948379 0.1328125  C 5.81632653061225 0.0516493055555532  5.96038415366147 0.00922309027777757  6.11644657863145 0.0055338541666673  C 6.27250900360144 0.00184461805555325  6.46258503401361 0.0221354166666673  6.68667466986795 0.06640625  L 6.67466986794718 0.099609375  C 6.97879151660664 0.033203125  7.1828731492597 0  7.28691476590636 0  L 16.422569027611 0  C 17.014805922369 0  17.4709883953581 0.206597222222221  17.7911164465786 0.619791666666667  C 18.1112444977991 1.03298611111111  18.1832733093237 1.51258680555555  18.0072028811525 2.05859375  L 14.7178871548619 12.0859375  C 14.4297719087635 12.9639756944444  14.1436574629852 13.5302734375  13.859543817527 13.7848307291667  C 13.5754301720688 14.0393880208333  13.0612244897959 14.1666666666667  12.3169267707083 14  L 1.88475390156062 14  C 1.66866746698679 14.1666666666667  1.51660664265706 14.2220052083333  1.42857142857143 14.3326822916667  C 1.34053621448579 14.4507378472222  1.33653461384554 14.609375  1.41656662665066 14.80859375  C 1.60864345738295 15.3250868055556  2.18487394957983 15.5833333333333  3.1452581032413 15.5833333333333  L 14.2256902761104 15.5833333333333  C 14.4577831132453 15.5833333333333  14.6818727490996 15.5261501736111  14.8979591836735 15.4117838541667  C 15.1140456182473 15.2974175347222  15.2541016406563 15.1443142361111  15.3181272509004 14.9524739583333  L 18.9195678271309 4.02864583333333  C 18.9755902360944 3.86631944444444  18.9955982392957 3.65603298611111  18.9795918367347 3.39778645833333  Z M 7.16686674669868 3.1875  L 6.91476590636255 3.89583333333333  C 6.8827531012405 3.99175347222222  6.89075630252101 4.07476128472222  6.93877551020408 4.14485677083333  C 6.98679471788715 4.21495225694444  7.06682673069228 4.25  7.17887154861945 4.25  L 14.4777911164466 4.25  C 14.5818327330932 4.25  14.6838735494198 4.21495225694444  14.7839135654262 4.14485677083333  C 14.8839535814326 4.07476128472222  14.9499799919968 3.99175347222222  14.9819927971188 3.89583333333333  L 15.234093637455 3.1875  C 15.266106442577 3.09157986111111  15.2581032412965 3.00857204861111  15.2100840336134 2.9384765625  C 15.1620648259304 2.86838107638889  15.0820328131253 2.83333333333333  14.9699879951981 2.83333333333333  L 7.67106842737095 2.83333333333333  C 7.56702681072429 2.83333333333333  7.46498599439776 2.86838107638889  7.36494597839136 2.9384765625  C 7.26490596238495 3.00857204861111  7.19887955182073 3.09157986111111  7.16686674669868 3.1875  Z M 6.17046818727491 6.02083333333333  L 5.91836734693878 6.72916666666667  C 5.88635454181673 6.82508680555556  5.89435774309724 6.90809461805556  5.94237695078031 6.97819010416667  C 5.99039615846339 7.04828559027778  6.07042817126851 7.08333333333333  6.18247298919568 7.08333333333333  L 13.4813925570228 7.08333333333333  C 13.5854341736695 7.08333333333333  13.687474989996 7.04828559027778  13.7875150060024 6.97819010416667  C 13.8875550220088 6.90809461805556  13.953581432573 6.82508680555556  13.9855942376951 6.72916666666667  L 14.2376950780312 6.02083333333333  C 14.2697078831533 5.92491319444444  14.2617046818727 5.84190538194444  14.2136854741897 5.77180989583333  C 14.1656662665066 5.70171440972222  14.0856342537015 5.66666666666667  13.9735894357743 5.66666666666667  L 6.67466986794718 5.66666666666667  C 6.57062825130052 5.66666666666667  6.46858743497399 5.70171440972222  6.36854741896759 5.77180989583333  C 6.26850740296119 5.84190538194444  6.20248099239696 5.92491319444444  6.17046818727491 6.02083333333333  Z " fill-rule="nonzero" fill="#8389bd" stroke="none" transform="matrix(1 0 0 1 42 302 )" />
  </g>
</svg>