<?xml version="1.0" encoding="utf-8"?>
<svg version="1.1" xmlns:xlink="http://www.w3.org/1999/xlink" width="19px" height="18px" xmlns="http://www.w3.org/2000/svg">
  <g transform="matrix(1 0 0 1 -1058 -30 )">
    <path d="M 18.030612244898 3.59765625  C 18.3195278111245 3.71484375  18.5438175270108 3.8828125  18.703481392557 4.1015625  C 19.0076030412165 4.546875  19.0760304121649 5.05078125  18.9087635054022 5.61328125  L 15.7725090036014 16.23046875  C 15.6280512204882 16.73046875  15.3372348939576 17.150390625  14.9000600240096 17.490234375  C 14.4628851540616 17.830078125  13.9971988795518 18  13.5030012004802 18  L 2.9765906362545 18  C 2.39115646258503 18  1.8266306522609 17.791015625  1.28301320528211 17.373046875  C 0.739395758303321 16.955078125  0.361144457783113 16.44140625  0.148259303721489 15.83203125  C -0.0342136854741897 15.30859375  -0.0418167266906763 14.8125  0.125450180072029 14.34375  C 0.125450180072029 14.3125  0.136854741896759 14.20703125  0.159663865546218 14.02734375  C 0.182472989195678 13.84765625  0.197679071628651 13.703125  0.205282112845138 13.59375  C 0.212885154061625 13.53125  0.201480592236895 13.447265625  0.171068427370948 13.341796875  C 0.140656262505002 13.236328125  0.129251700680272 13.16015625  0.136854741896759 13.11328125  C 0.152060824329732 13.02734375  0.182472989195678 12.9453125  0.228091236494598 12.8671875  C 0.273709483793517 12.7890625  0.336434573829532 12.697265625  0.416266506602641 12.591796875  C 0.49609843937575 12.486328125  0.558823529411765 12.39453125  0.604441776710684 12.31640625  C 0.779311724689876 12.01953125  0.950380152060824 11.662109375  1.11764705882353 11.244140625  C 1.28491396558623 10.826171875  1.39895958383353 10.46875  1.45978391356543 10.171875  C 1.48259303721489 10.09375  1.48449379751901 9.9765625  1.46548619447779 9.8203125  C 1.44647859143657 9.6640625  1.44457783113245 9.5546875  1.45978391356543 9.4921875  C 1.48259303721489 9.40625  1.54721888755502 9.296875  1.65366146458583 9.1640625  C 1.76010404161665 9.03125  1.82472989195678 8.94140625  1.84753901560624 8.89453125  C 2.00720288115246 8.61328125  2.16686674669868 8.25390625  2.3265306122449 7.81640625  C 2.48619447779112 7.37890625  2.5812324929972 7.02734375  2.61164465786315 6.76171875  C 2.61924769907963 6.69140625  2.60974389755902 6.56640625  2.58313325330132 6.38671875  C 2.55652260904362 6.20703125  2.55842336934774 6.09765625  2.58883553421369 6.05859375  C 2.61924769907963 5.95703125  2.70288115246098 5.837890625  2.83973589435774 5.701171875  C 2.9765906362545 5.564453125  3.06022408963585 5.4765625  3.0906362545018 5.4375  C 3.23509403761505 5.234375  3.39665866346539 4.904296875  3.57533013205282 4.447265625  C 3.75400160064026 3.990234375  3.85854341736695 3.61328125  3.88895558223289 3.31640625  C 3.89655862344938 3.25390625  3.88515406162465 3.154296875  3.8547418967587 3.017578125  C 3.82432973189276 2.880859375  3.81672669067627 2.77734375  3.83193277310924 2.70703125  C 3.84713885554222 2.64453125  3.88135254101641 2.57421875  3.93457382953181 2.49609375  C 3.98779511804722 2.41796875  4.0562224889956 2.328125  4.13985594237695 2.2265625  C 4.2234893957583 2.125  4.28811524609844 2.04296875  4.33373349339736 1.98046875  C 4.39455782312925 1.88671875  4.45728291316527 1.767578125  4.5219087635054 1.623046875  C 4.58653461384554 1.478515625  4.64355742296919 1.341796875  4.69297719087635 1.212890625  C 4.74239695878351 1.083984375  4.80322128851541 0.943359374999999  4.87545018007203 0.791015625  C 4.94767907162865 0.638671875000001  5.0218087234894 0.513671874999999  5.09783913565426 0.416015624999999  C 5.17386954781913 0.318359374999998  5.27460984393758 0.226562499999998  5.4000600240096 0.140625  C 5.52551020408163 0.0546874999999976  5.66236494597839 0.00976562499999978  5.81062424969988 0.00585937500000067  C 5.95888355342137 0.00195312499999756  6.13945578231293 0.0234375000000007  6.35234093637455 0.0703125  L 6.34093637454982 0.10546875  C 6.62985194077631 0.03515625  6.82372949179672 0  6.92256902761104 0  L 15.6014405762305 0  C 16.1640656262505 0  16.5974389755902 0.218749999999998  16.9015606242497 0.656250000000001  C 17.2056822729092 1.09375  17.2741096438575 1.6015625  17.1068427370948 2.1796875  L 13.9819927971188 12.796875  C 13.7082833133253 13.7265625  13.4364745898359 14.326171875  13.1665666266507 14.595703125  C 12.8966586634654 14.865234375  12.4081632653061 15  11.7010804321729 15  L 1.79051620648259 15  C 1.58523409363746 15  1.44077631052421 15.05859375  1.35714285714286 15.17578125  C 1.2735094037615 15.30078125  1.26970788315326 15.46875  1.34573829531813 15.6796875  C 1.52821128451381 16.2265625  2.07563025210084 16.5  2.98799519807923 16.5  L 13.5144057623049 16.5  C 13.734893957583 16.5  13.9477791116447 16.439453125  14.1530612244898 16.318359375  C 14.3583433373349 16.197265625  14.4913965586234 16.03515625  14.5522208883553 15.83203125  L 17.9735894357743 4.265625  C 18.0268107242897 4.09375  18.0458183273309 3.87109375  18.030612244898 3.59765625  Z M 6.80852340936374 3.375  L 6.56902761104442 4.125  C 6.53861544617847 4.2265625  6.54621848739496 4.314453125  6.59183673469388 4.388671875  C 6.6374549819928 4.462890625  6.71348539415766 4.5  6.81992797118848 4.5  L 13.7539015606243 4.5  C 13.8527410964386 4.5  13.9496798719488 4.462890625  14.0447178871549 4.388671875  C 14.1397559023609 4.314453125  14.202480992397 4.2265625  14.2328931572629 4.125  L 14.4723889555822 3.375  C 14.5028011204482 3.2734375  14.4951980792317 3.185546875  14.4495798319328 3.111328125  C 14.4039615846339 3.037109375  14.327931172469 3  14.2214885954382 3  L 7.2875150060024 3  C 7.18867547018808 3  7.09173669467787 3.037109375  6.99669867947179 3.111328125  C 6.90166066426571 3.185546875  6.83893557422969 3.2734375  6.80852340936374 3.375  Z M 5.86194477791116 6.375  L 5.62244897959184 7.125  C 5.59203681472589 7.2265625  5.59963985594238 7.314453125  5.6452581032413 7.388671875  C 5.69087635054022 7.462890625  5.76690676270508 7.5  5.87334933973589 7.5  L 12.8073229291717 7.5  C 12.906162464986 7.5  13.0031012404962 7.462890625  13.0981392557023 7.388671875  C 13.1931772709084 7.314453125  13.2559023609444 7.2265625  13.2863145258103 7.125  L 13.5258103241297 6.375  C 13.5562224889956 6.2734375  13.5486194477791 6.185546875  13.5030012004802 6.111328125  C 13.4573829531813 6.037109375  13.3813525410164 6  13.2749099639856 6  L 6.34093637454982 6  C 6.2420968387355 6  6.14515806322529 6.037109375  6.05012004801921 6.111328125  C 5.95508203281313 6.185546875  5.89235694277711 6.2734375  5.86194477791116 6.375  Z " fill-rule="nonzero" fill="#8389bd" stroke="none" transform="matrix(1 0 0 1 1058 30 )" />
  </g>
</svg>