<?xml version="1.0" encoding="utf-8"?>
<svg version="1.1" xmlns:xlink="http://www.w3.org/1999/xlink" width="20px" height="14px" xmlns="http://www.w3.org/2000/svg">
  <g transform="matrix(1 0 0 1 -42 -222 )">
    <path d="M 7.88020833333333 6.36478365384615  C 8.46701388888889 5.89082532051282  9.17361111111111 5.65384615384615  10 5.65384615384615  C 10.8263888888889 5.65384615384615  11.5329861111111 5.89082532051282  12.1197916666667 6.36478365384615  C 12.7065972222222 6.83874198717949  13 7.40945512820513  13 8.07692307692308  C 13 8.74439102564103  12.7065972222222 9.31510416666667  12.1197916666667 9.7890625  C 11.5329861111111 10.2630208333333  10.8263888888889 10.5  10 10.5  C 9.17361111111111 10.5  8.46701388888889 10.2630208333333  7.88020833333333 9.7890625  C 7.29340277777778 9.31510416666667  7 8.74439102564103  7 8.07692307692308  C 7 7.40945512820513  7.29340277777778 6.83874198717949  7.88020833333333 6.36478365384615  Z M 15 2.15384615384615  L 17.3333333333333 2.15384615384615  C 18.0694444444444 2.15384615384615  18.6979166666667 2.36418269230769  19.21875 2.78485576923077  C 19.7395833333333 3.20552884615385  20 3.71314102564102  20 4.30769230769231  L 20 11.8461538461538  C 20 12.4407051282051  19.7395833333333 12.9483173076923  19.21875 13.3689903846154  C 18.6979166666667 13.7896634615385  18.0694444444444 14  17.3333333333333 14  L 2.66666666666667 14  C 1.93055555555556 14  1.30208333333333 13.7896634615385  0.78125 13.3689903846154  C 0.260416666666667 12.9483173076923  0 12.4407051282051  0 11.8461538461538  L 0 4.30769230769231  C 0 3.71314102564102  0.260416666666667 3.20552884615385  0.78125 2.78485576923077  C 1.30208333333333 2.36418269230769  1.93055555555556 2.15384615384615  2.66666666666667 2.15384615384615  L 5 2.15384615384615  L 5.53125 1.00961538461538  C 5.66319444444444 0.734775641025641  5.90451388888889 0.497796474358974  6.25520833333333 0.298677884615384  C 6.60590277777778 0.0995592948717963  6.96527777777778 0  7.33333333333333 0  L 12.6666666666667 0  C 13.0347222222222 0  13.3940972222222 0.0995592948717963  13.7447916666667 0.298677884615384  C 14.0954861111111 0.497796474358974  14.3368055555556 0.734775641025641  14.46875 1.00961538461538  L 15 2.15384615384615  Z M 6.703125 10.7397836538462  C 7.61631944444444 11.4773637820513  8.71527777777778 11.8461538461538  10 11.8461538461538  C 11.2847222222222 11.8461538461538  12.3836805555556 11.4773637820513  13.296875 10.7397836538462  C 14.2100694444444 10.002203525641  14.6666666666667 9.11458333333333  14.6666666666667 8.07692307692308  C 14.6666666666667 7.03926282051282  14.2100694444444 6.15164262820513  13.296875 5.4140625  C 12.3836805555556 4.67648237179487  11.2847222222222 4.30769230769231  10 4.30769230769231  C 8.71527777777778 4.30769230769231  7.61631944444444 4.67648237179487  6.703125 5.4140625  C 5.78993055555556 6.15164262820513  5.33333333333333 7.03926282051282  5.33333333333333 8.07692307692308  C 5.33333333333333 9.11458333333333  5.78993055555556 10.002203525641  6.703125 10.7397836538462  Z " fill-rule="nonzero" fill="#8389bd" stroke="none" transform="matrix(1 0 0 1 42 222 )" />
  </g>
</svg>