<?xml version="1.0" encoding="utf-8"?>
<svg version="1.1" xmlns:xlink="http://www.w3.org/1999/xlink" width="38px" height="52px" xmlns="http://www.w3.org/2000/svg">
  <g transform="matrix(1 0 0 1 -975 -88 )">
    <path d="M 34 47.0852610707204  L 34 5  L 4 5  L 4 47.0852610707204  L 16.3578125 33.1315267680106  L 19 30.2101784534038  L 21.6421875 33.1315267680106  L 34 47.0852610707204  Z M 3.44375 0  L 34.55625 0  C 35.0114583333333 0  35.446875 0.103106411103768  35.8625 0.309319233311305  C 36.515625 0.607182198722178  37.03515625 1.07688918263935  37.42109375 1.71844018506279  C 37.80703125 2.35999118748623  38 3.07027979731218  38 3.84930601454065  L 38 48.1506939854594  C 38 48.9297202026878  37.80703125 49.6400088125138  37.42109375 50.2815598149372  C 37.03515625 50.9231108173607  36.515625 51.3928178012778  35.8625 51.6906807666887  C 35.4864583333333 51.8739810530954  35.0510416666667 51.9656311962987  34.55625 51.9656311962987  C 33.60625 51.9656311962987  32.7848958333333 51.5990306234853  32.0921875 50.8658294778586  L 19 36.2934567085261  L 5.9078125 50.8658294778586  C 5.1953125 51.6219431592862  4.37395833333333 52  3.44375 52  C 2.98854166666667 52  2.553125 51.8968935888962  2.1375 51.6906807666887  C 1.484375 51.3928178012778  0.96484375 50.9231108173607  0.57890625 50.2815598149372  C 0.19296875 49.6400088125138  0 48.9297202026878  0 48.1506939854594  L 0 3.84930601454065  C 0 3.07027979731218  0.19296875 2.35999118748623  0.57890625 1.71844018506279  C 0.96484375 1.07688918263935  1.484375 0.607182198722178  2.1375 0.309319233311305  C 2.553125 0.103106411103768  2.98854166666667 0  3.44375 0  Z " fill-rule="nonzero" fill="#8389bd" stroke="none" transform="matrix(1 0 0 1 975 88 )" />
  </g>
</svg>