<?xml version="1.0" encoding="utf-8"?>
<svg version="1.1" xmlns:xlink="http://www.w3.org/1999/xlink" width="19px" height="20px" xmlns="http://www.w3.org/2000/svg">
  <g transform="matrix(1 0 0 1 -1056 -66 )">
    <path d="M 3.47767857142857 15.3409090909091  C 3.8735119047619 15.8712121212121  4.07142857142857 16.5151515151515  4.07142857142857 17.2727272727273  C 4.07142857142857 18.030303030303  3.8735119047619 18.6742424242424  3.47767857142857 19.2045454545455  C 3.08184523809524 19.7348484848485  2.60119047619048 20  2.03571428571429 20  C 1.4702380952381 20  0.989583333333333 19.7348484848485  0.59375 19.2045454545455  C 0.197916666666667 18.6742424242424  0 18.030303030303  0 17.2727272727273  C 0 16.5151515151515  0.197916666666667 15.8712121212121  0.59375 15.3409090909091  C 0.989583333333333 14.8106060606061  1.4702380952381 14.5454545454545  2.03571428571429 14.5454545454545  C 2.60119047619048 14.5454545454545  3.08184523809524 14.8106060606061  3.47767857142857 15.3409090909091  Z M 3.47767857142857 8.06818181818182  C 3.8735119047619 8.59848484848485  4.07142857142857 9.24242424242424  4.07142857142857 10  C 4.07142857142857 10.7575757575758  3.8735119047619 11.4015151515152  3.47767857142857 11.9318181818182  C 3.08184523809524 12.4621212121212  2.60119047619048 12.7272727272727  2.03571428571429 12.7272727272727  C 1.4702380952381 12.7272727272727  0.989583333333333 12.4621212121212  0.59375 11.9318181818182  C 0.197916666666667 11.4015151515152  0 10.7575757575758  0 10  C 0 9.24242424242424  0.197916666666667 8.59848484848485  0.59375 8.06818181818182  C 0.989583333333333 7.53787878787879  1.4702380952381 7.27272727272727  2.03571428571429 7.27272727272727  C 2.60119047619048 7.27272727272727  3.08184523809524 7.53787878787879  3.47767857142857 8.06818181818182  Z M 18.8992745535714 15.5894886363636  C 18.9664248511905 15.6794507575758  19 15.7859848484848  19 15.9090909090909  L 19 18.6363636363636  C 19 18.7594696969697  18.9664248511905 18.8660037878788  18.8992745535714 18.9559659090909  C 18.8321242559524 19.045928030303  18.7526041666667 19.0909090909091  18.6607142857143 19  L 5.76785714285714 19  C 5.67596726190476 19.0909090909091  5.59644717261905 19.045928030303  5.529296875 18.9559659090909  C 5.46214657738095 18.8660037878788  5.42857142857143 18.7594696969697  5.42857142857143 18.6363636363636  L 5.42857142857143 15.9090909090909  C 5.42857142857143 15.7859848484848  5.46214657738095 15.6794507575758  5.529296875 15.5894886363636  C 5.59644717261905 15.4995265151515  5.67596726190476 15.4545454545455  5.76785714285714 15.4545454545455  L 18.6607142857143 15.4545454545455  C 18.7526041666667 15.4545454545455  18.8321242559524 15.4995265151515  18.8992745535714 15.5894886363636  Z M 3.47767857142857 0.795454545454546  C 3.8735119047619 1.32575757575758  4.07142857142857 1.96969696969697  4.07142857142857 2.72727272727273  C 4.07142857142857 3.48484848484848  3.8735119047619 4.12878787878788  3.47767857142857 4.65909090909091  C 3.08184523809524 5.18939393939394  2.60119047619048 5.45454545454545  2.03571428571429 5.45454545454545  C 1.4702380952381 5.45454545454545  0.989583333333333 5.18939393939394  0.59375 4.65909090909091  C 0.197916666666667 4.12878787878788  0 3.48484848484848  0 2.72727272727273  C 0 1.96969696969697  0.197916666666667 1.32575757575758  0.59375 0.795454545454546  C 0.989583333333333 0.265151515151514  1.4702380952381 0  2.03571428571429 0  C 2.60119047619048 0  3.08184523809524 0.265151515151514  3.47767857142857 0.795454545454546  Z M 18.8992745535714 8.31676136363637  C 18.9664248511905 8.40672348484848  19 8.51325757575758  19 8.63636363636363  L 19 11.3636363636364  C 19 11.4867424242424  18.9664248511905 11.5932765151515  18.8992745535714 11.6832386363636  C 18.8321242559524 11.7732007575758  18.7526041666667 11.8181818181818  18.6607142857143 11.8181818181818  L 5.76785714285714 11.8181818181818  C 5.67596726190476 11.8181818181818  5.59644717261905 11.7732007575758  5.529296875 11.6832386363636  C 5.46214657738095 11.5932765151515  5.42857142857143 11.4867424242424  5.42857142857143 11.3636363636364  L 5.42857142857143 8.63636363636363  C 5.42857142857143 8.51325757575758  5.46214657738095 8.40672348484848  5.529296875 8.31676136363637  C 5.59644717261905 8.22679924242424  5.67596726190476 8.18181818181818  5.76785714285714 8.18181818181818  L 18.6607142857143 8.18181818181818  C 18.7526041666667 8.18181818181818  18.8321242559524 8.22679924242424  18.8992745535714 8.31676136363637  Z M 18.8992745535714 1.04403409090909  C 18.9664248511905 1.13399621212121  19 1.2405303030303  19 1.36363636363636  L 19 4.09090909090909  C 19 4.21401515151515  18.9664248511905 4.32054924242424  18.8992745535714 4.41051136363637  C 18.8321242559524 4.50047348484848  18.7526041666667 4.54545454545455  18.6607142857143 4.54545454545455  L 5.76785714285714 4.54545454545455  C 5.67596726190476 4.54545454545455  5.59644717261905 4.50047348484848  5.529296875 4.41051136363637  C 5.46214657738095 4.32054924242424  5.42857142857143 4.21401515151515  5.42857142857143 4.09090909090909  L 5.42857142857143 1.36363636363636  C 5.42857142857143 1.2405303030303  5.46214657738095 1.13399621212121  5.529296875 1.04403409090909  C 5.59644717261905 0.954071969696968  5.67596726190476 0.909090909090908  5.76785714285714 1  L 18.6607142857143 1  C 18.7526041666667 0.909090909090908  18.8321242559524 0.954071969696968  18.8992745535714 1.04403409090909  Z " fill-rule="nonzero" fill="#8389bd" stroke="none" transform="matrix(1 0 0 1 1056 66 )" />
  </g>
</svg>