<?xml version="1.0" encoding="utf-8"?>
<svg version="1.1" xmlns:xlink="http://www.w3.org/1999/xlink" width="20px" height="13px" xmlns="http://www.w3.org/2000/svg">
  <g transform="matrix(1 0 0 1 -42 -107 )">
    <path d="M 17.5999999999996 4.32769830949285  C 22.4797619047611 4.78936044449742  17.5999999999996 4.32206328565236  17.5999999999996 4.47984395318596  L 17.5999999999996 8.6553966189857  C 17.5999999999996 8.81317728651929  17.6992063492059 8.55396618985696  17.5999999999996 8.6553966189857  C 17.5007936507932 8.75682704811443  17.7543209876539 8.6553966189857  17.5999999999996 8.6553966189857  L 7.40740740740741 8.6553966189857  L 7.40740740740741 12.4421326397919  C 7.40740740740741 12.6788036410923  7.30268959435626 12.8422193324664  7.09325396825397 12.9323797139142  C 6.88381834215167 13.0225400953619  6.69091710758378 12.9943649761595  6.51455026455026 12.8478543563069  L 0.165343915343917 6.93107932379714  C 0.055114638447971 6.81837884698743  0 6.68877329865626  0 6.54226267880364  C 0 6.38448201127005  0.055114638447971 6.24924143909839  0.165343915343917 6.13654096228869  L 6.51455026455026 0.152145643693107  C 6.69091710758378 -0.00563502384048901  6.88381834215167 -0.0394451668834021  7.09325396825397 0.0507152145643717  C 7.30268959435626 0.152145643693107  7.40740740740741 0.315561335067187  7.40740740740741 0.540962288686605  L 7.40740740740741 4.32769830949285  L 17.5999999999996 4.32769830949285  C 17.7543209876539 4.32769830949285  12.7202380952381 3.86603617448828  17.5999999999996 4.32769830949285  Z " fill-rule="nonzero" fill="#8389bd" stroke="none" transform="matrix(1 0 0 1 42 107 )" />
  </g>
</svg>