<?xml version="1.0" encoding="utf-8"?>
<svg version="1.1" xmlns:xlink="http://www.w3.org/1999/xlink" width="50px" height="50px" xmlns="http://www.w3.org/2000/svg">
  <g transform="matrix(1 0 0 1 -157 -297 )">
    <path d="M 28.125 41.8619791666667  C 28.6892361111111 41.8619791666667  29.1775173611111 41.6558159722222  29.58984375 41.2434895833333  L 32.91015625 37.9231770833333  C 33.3224826388889 37.5108506944444  33.5286458333333 37.0225694444444  33.5286458333333 36.4583333333333  C 33.5286458333333 35.8940972222222  33.3224826388889 35.4058159722222  32.91015625 34.9934895833333  L 22.9166666666667 25  L 32.91015625 15.0065104166667  C 33.3224826388889 14.5941840277778  33.5286458333333 14.1059027777778  33.5286458333333 13.5416666666667  C 33.5286458333333 12.9774305555556  33.3224826388889 12.4891493055556  32.91015625 12.0768229166667  L 29.58984375 8.75651041666667  C 29.1775173611111 8.34418402777777  28.6892361111111 8.13802083333333  28.125 8.13802083333333  C 27.5607638888889 8.13802083333333  27.0724826388889 8.34418402777777  26.66015625 8.75651041666667  L 11.8815104166667 23.53515625  C 11.4691840277778 23.9474826388889  11.2630208333333 24.4357638888889  11.2630208333333 25  C 11.2630208333333 25.5642361111111  11.4691840277778 26.0525173611111  11.8815104166667 26.46484375  L 26.66015625 41.2434895833333  C 27.0724826388889 41.6558159722222  27.5607638888889 41.8619791666667  28.125 41.8619791666667  Z M 46.6471354166667 12.451171875  C 48.8823784722222 16.2814670138889  50 20.4644097222222  50 25  C 50 29.5355902777778  48.8823784722222 33.7185329861111  46.6471354166667 37.548828125  C 44.4118923611111 41.3791232638889  41.3791232638889 44.4118923611111  37.548828125 46.6471354166667  C 33.7185329861111 48.8823784722222  29.5355902777778 50  25 50  C 20.4644097222222 50  16.2814670138889 48.8823784722222  12.451171875 46.6471354166667  C 8.62087673611111 44.4118923611111  5.58810763888889 41.3791232638889  3.35286458333333 37.548828125  C 1.11762152777778 33.7185329861111  0 29.5355902777778  0 25  C 0 20.4644097222222  1.11762152777778 16.2814670138889  3.35286458333333 12.451171875  C 5.58810763888889 8.62087673611111  8.62087673611111 5.58810763888888  12.451171875 3.35286458333333  C 16.2814670138889 1.11762152777777  20.4644097222222 0  25 0  C 29.5355902777778 0  33.7185329861111 1.11762152777777  37.548828125 3.35286458333333  C 41.3791232638889 5.58810763888888  44.4118923611111 8.62087673611111  46.6471354166667 12.451171875  Z " fill-rule="nonzero" fill="#000000" stroke="none" transform="matrix(1 0 0 1 157 297 )" />
  </g>
</svg>