<?xml version="1.0" encoding="utf-8"?>
<svg version="1.1" xmlns:xlink="http://www.w3.org/1999/xlink" width="50px" height="50px" xmlns="http://www.w3.org/2000/svg">
  <g transform="matrix(1 0 0 1 -832 -296 )">
    <path d="M 21.875 41.8619791666667  C 22.4392361111111 41.8619791666667  22.9275173611111 41.6558159722222  23.33984375 41.2434895833333  L 38.1184895833333 26.46484375  C 38.5308159722222 26.0525173611111  38.7369791666667 25.5642361111111  38.7369791666667 25  C 38.7369791666667 24.4357638888889  38.5308159722222 23.9474826388889  38.1184895833333 23.53515625  L 23.33984375 8.75651041666667  C 22.9275173611111 8.34418402777777  22.4392361111111 8.13802083333333  21.875 8.13802083333333  C 21.3107638888889 8.13802083333333  20.8224826388889 8.34418402777777  20.41015625 8.75651041666667  L 17.08984375 12.0768229166667  C 16.6775173611111 12.4891493055556  16.4713541666667 12.9774305555556  16.4713541666667 13.5416666666667  C 16.4713541666667 14.1059027777778  16.6775173611111 14.5941840277778  17.08984375 15.0065104166667  L 27.0833333333333 25  L 17.08984375 34.9934895833333  C 16.6775173611111 35.4058159722222  16.4713541666667 35.8940972222222  16.4713541666667 36.4583333333333  C 16.4713541666667 37.0225694444444  16.6775173611111 37.5108506944444  17.08984375 37.9231770833333  L 20.41015625 41.2434895833333  C 20.8224826388889 41.6558159722222  21.3107638888889 41.8619791666667  21.875 41.8619791666667  Z M 46.6471354166667 12.451171875  C 48.8823784722222 16.2814670138889  50 20.4644097222222  50 25  C 50 29.5355902777778  48.8823784722222 33.7185329861111  46.6471354166667 37.548828125  C 44.4118923611111 41.3791232638889  41.3791232638889 44.4118923611111  37.548828125 46.6471354166667  C 33.7185329861111 48.8823784722222  29.5355902777778 50  25 50  C 20.4644097222222 50  16.2814670138889 48.8823784722222  12.451171875 46.6471354166667  C 8.62087673611111 44.4118923611111  5.58810763888889 41.3791232638889  3.35286458333333 37.548828125  C 1.11762152777778 33.7185329861111  0 29.5355902777778  0 25  C 0 20.4644097222222  1.11762152777778 16.2814670138889  3.35286458333333 12.451171875  C 5.58810763888889 8.62087673611111  8.62087673611111 5.58810763888888  12.451171875 3.35286458333333  C 16.2814670138889 1.11762152777777  20.4644097222222 0  25 0  C 29.5355902777778 0  33.7185329861111 1.11762152777777  37.548828125 3.35286458333333  C 41.3791232638889 5.58810763888888  44.4118923611111 8.62087673611111  46.6471354166667 12.451171875  Z " fill-rule="nonzero" fill="#000000" stroke="none" transform="matrix(1 0 0 1 832 296 )" />
  </g>
</svg>