<?xml version="1.0" encoding="utf-8"?>
<svg version="1.1" xmlns:xlink="http://www.w3.org/1999/xlink" width="35px" height="22px" xmlns="http://www.w3.org/2000/svg">
  <g transform="matrix(1 0 0 1 -56 -130 )">
    <path d="M 30.7999999999993 7.32379713914175  C 39.3395833333319 8.10507152145717  30.7999999999993 7.31426094495016  30.7999999999993 7.5812743823147  L 30.7999999999993 14.6475942782835  C 30.7999999999993 14.914607715648  30.9736111111104 14.4759427828349  30.7999999999993 14.6475942782835  C 30.6263888888882 14.8192457737321  31.0700617283943 14.6475942782835  30.7999999999993 14.6475942782835  L 12.962962962963 14.6475942782835  L 12.962962962963 21.0559167750325  C 12.962962962963 21.4564369310793  12.7797067901235 21.7329865626355  12.4131944444444 21.8855656697009  C 12.0466820987654 22.0381447767664  11.7091049382716 21.9904638058084  11.400462962963 21.742522756827  L 0.289351851851855 11.7295188556567  C 0.0964506172839492 11.5387949718249  0 11.3194625054183  0 11.0715214564369  C 0 10.8045080190724  0.0964506172839492 10.5756393584742  0.289351851851855 10.3849154746424  L 11.400462962963 0.25747724317295  C 11.7091049382716 -0.00953619419159679  12.0466820987654 -0.066753359341142  12.4131944444444 0.0858257477243214  C 12.7797067901235 0.25747724317295  12.962962962963 0.534026874729086  12.962962962963 0.915474642392716  L 12.962962962963 7.32379713914175  L 30.7999999999993 7.32379713914175  C 31.0700617283943 7.32379713914175  22.2604166666667 6.54252275682632  30.7999999999993 7.32379713914175  Z " fill-rule="nonzero" fill="#000000" stroke="none" transform="matrix(1 0 0 1 56 130 )" />
  </g>
</svg>