<?xml version="1.0" encoding="utf-8"?>
<svg version="1.1" xmlns:xlink="http://www.w3.org/1999/xlink" width="14px" height="20px" xmlns="http://www.w3.org/2000/svg">
  <g transform="matrix(1 0 0 1 -271 -120 )">
    <path d="M 13.7690972222222 7.92067307692308  C 13.9230324074074 8.07291666666666  14 8.25320512820513  14 8.46153846153846  L 14 10  C 14 11.7708333333333  13.4024884259259 13.3112980769231  12.2074652777778 14.6213942307692  C 11.0124421296296 15.9314903846154  9.53587962962963 16.6826923076923  7.77777777777778 16.875  L 7.77777777777778 18.4615384615385  L 10.8888888888889 18.4615384615385  C 11.099537037037 18.4615384615385  11.2818287037037 18.5376602564103  11.4357638888889 18.6899038461538  C 11.5896990740741 18.8421474358974  11.6666666666667 19.0224358974359  11.6666666666667 19.2307692307692  C 11.6666666666667 19.4391025641026  11.5896990740741 19.619391025641  11.4357638888889 19.7716346153846  C 11.2818287037037 19.9238782051282  11.099537037037 20  10.8888888888889 20  L 3.11111111111111 20  C 2.90046296296296 20  2.7181712962963 19.9238782051282  2.56423611111111 19.7716346153846  C 2.41030092592593 19.619391025641  2.33333333333333 19.4391025641026  2.33333333333333 19.2307692307692  C 2.33333333333333 19.0224358974359  2.41030092592593 18.8421474358974  2.56423611111111 18.6899038461538  C 2.7181712962963 18.5376602564103  2.90046296296296 18.4615384615385  3.11111111111111 18.4615384615385  L 6.22222222222222 18.4615384615385  L 6.22222222222222 16.875  C 4.46412037037037 16.6826923076923  2.98755787037037 15.9314903846154  1.79253472222222 14.6213942307692  C 0.597511574074074 13.3112980769231  0 11.7708333333333  0 10  L 0 8.46153846153846  C 0 8.25320512820513  0.0769675925925926 8.07291666666666  0.230902777777778 7.92067307692308  C 0.384837962962963 7.76842948717949  0.56712962962963 7.69230769230769  0.777777777777778 7.69230769230769  C 0.988425925925926 7.69230769230769  1.17071759259259 7.76842948717949  1.32465277777778 7.92067307692308  C 1.47858796296296 8.07291666666666  1.55555555555556 8.25320512820513  1.55555555555556 8.46153846153846  L 1.55555555555556 10  C 1.55555555555556 11.4823717948718  2.08825231481481 12.7504006410256  3.15364583333333 13.8040865384615  C 4.21903935185185 14.8577724358974  5.50115740740741 15.3846153846154  7 15.3846153846154  C 8.49884259259259 15.3846153846154  9.78096064814815 14.8577724358974  10.8463541666667 13.8040865384615  C 11.9117476851852 12.7504006410256  12.4444444444444 11.4823717948718  12.4444444444444 10  L 12.4444444444444 8.46153846153846  C 12.4444444444444 8.25320512820513  12.521412037037 8.07291666666666  12.6753472222222 7.92067307692308  C 12.8292824074074 7.76842948717949  13.0115740740741 7.69230769230769  13.2222222222222 7.69230769230769  C 13.4328703703704 7.69230769230769  13.615162037037 7.76842948717949  13.7690972222222 7.92067307692308  Z M 9.74652777777778 1.12980769230769  C 10.5081018518519 1.88301282051282  10.8888888888889 2.78846153846154  10.8888888888889 3.84615384615385  L 10.8888888888889 10  C 10.8888888888889 11.0576923076923  10.5081018518519 11.963141025641  9.74652777777778 12.7163461538462  C 8.9849537037037 13.4695512820513  8.06944444444444 13.8461538461538  7 13.8461538461538  C 5.93055555555556 13.8461538461538  5.0150462962963 13.4695512820513  4.25347222222222 12.7163461538462  C 3.49189814814815 11.963141025641  3.11111111111111 11.0576923076923  3.11111111111111 10  L 3.11111111111111 3.84615384615385  C 3.11111111111111 2.78846153846154  3.49189814814815 1.88301282051282  4.25347222222222 1.12980769230769  C 5.0150462962963 0.376602564102566  5.93055555555556 0  7 0  C 8.06944444444444 0  8.9849537037037 0.376602564102566  9.74652777777778 1.12980769230769  Z " fill-rule="nonzero" fill="#8389bd" stroke="none" transform="matrix(1 0 0 1 271 120 )" />
  </g>
</svg>