<?xml version="1.0" encoding="utf-8"?>
<svg version="1.1" xmlns:xlink="http://www.w3.org/1999/xlink" width="23px" height="24px" xmlns="http://www.w3.org/2000/svg">
  <g transform="matrix(1 0 0 1 -1069 -17 )">
    <path d="M 11.5 22.9285714285714  C 11.6474358974359 22.9285714285714  11.7211538461538 22.8571428571429  11.7211538461538 22.7142857142857  C 11.7211538461538 22.5714285714286  11.6474358974359 22.5  11.5 22.5  C 10.9563301282051 22.5  10.4886818910256 22.3102678571429  10.0970552884615 21.9308035714286  C 9.70542868589744 21.5513392857143  9.50961538461538 21.0982142857143  9.50961538461538 20.5714285714286  C 9.50961538461538 20.4285714285714  9.43589743589744 20.3571428571429  9.28846153846154 20.3571428571429  C 9.14102564102564 20.3571428571429  9.06730769230769 20.4285714285714  9.06730769230769 20.5714285714286  C 9.06730769230769 21.2232142857143  9.30458733974359 21.7790178571429  9.77914663461538 22.2388392857143  C 10.2537059294872 22.6986607142857  10.8273237179487 22.9285714285714  11.5 22.9285714285714  Z M 21.7421875 17.6785714285714  C 22.1199919871795 18.0892857142857  22.5392628205128 18.4821428571429  23 18.8571428571429  C 23 19.3214285714286  22.8249198717949 19.7232142857143  22.4747596153846 20.0625  C 22.1245993589744 20.4017857142857  21.7099358974359 20.5714285714286  21.2307692307692 20.5714285714286  L 15.0384615384615 20.5714285714286  C 15.0384615384615 21.5178571428571  14.6929086538462 22.3258928571429  14.0018028846154 22.9955357142857  C 13.3106971153846 23.6651785714286  12.4767628205128 24  11.5 24  C 10.5232371794872 24  9.68930288461538 23.6651785714286  8.99819711538462 22.9955357142857  C 8.30709134615385 22.3258928571429  7.96153846153846 21.5178571428571  7.96153846153846 20.5714285714286  L 1.76923076923077 20.5714285714286  C 1.2900641025641 20.5714285714286  0.875400641025641 20.4017857142857  0.525240384615385 20.0625  C 0.175080128205128 19.7232142857143  0 19.3214285714286  0 18.8571428571429  C 0.46073717948718 18.4821428571429  0.880008012820513 18.0892857142857  1.2578125 17.6785714285714  C 1.63561698717949 17.2678571428571  2.02724358974359 16.734375  2.43269230769231 16.078125  C 2.83814102564103 15.421875  3.18139022435897 14.7142857142857  3.46243990384615 13.9553571428571  C 3.74348958333333 13.1964285714286  3.97385817307692 12.2767857142857  4.15354567307692 11.1964285714286  C 4.33323317307692 10.1160714285714  4.42307692307692 8.95535714285714  4.42307692307692 7.71428571428571  C 4.42307692307692 6.35714285714286  4.96213942307692 5.09598214285714  6.04026442307692 3.93080357142857  C 7.11838942307692 2.765625  8.53285256410256 2.05803571428571  10.2836538461538 1.80803571428571  C 10.2099358974359 1.63839285714285  10.1730769230769 1.46428571428571  10.1730769230769 1.28571428571429  C 10.1730769230769 0.928571428571428  10.3020833333333 0.624999999999999  10.5600961538462 0.375  C 10.818108974359 0.125000000000001  11.1314102564103 0  11.5 0  C 11.8685897435897 0  12.181891025641 0.125000000000001  12.4399038461538 0.375  C 12.6979166666667 0.624999999999999  12.8269230769231 0.928571428571428  12.8269230769231 1.28571428571429  C 12.8269230769231 1.46428571428571  12.7900641025641 1.63839285714285  12.7163461538462 1.80803571428571  C 14.4671474358974 2.05803571428571  15.8816105769231 2.765625  16.9597355769231 3.93080357142857  C 18.0378605769231 5.09598214285714  18.5769230769231 6.35714285714286  18.5769230769231 7.71428571428571  C 18.5769230769231 8.95535714285714  18.6667668269231 10.1160714285714  18.8464543269231 11.1964285714286  C 19.0261418269231 12.2767857142857  19.2565104166667 13.1964285714286  19.5375600961538 13.9553571428571  C 19.818609775641 14.7142857142857  20.161858974359 15.421875  20.5673076923077 16.078125  C 20.9727564102564 16.734375  21.3643830128205 17.2678571428571  21.7421875 17.6785714285714  Z " fill-rule="nonzero" fill="#8389bd" stroke="none" transform="matrix(1 0 0 1 1069 17 )" />
  </g>
</svg>