<?xml version="1.0" encoding="utf-8"?>
<svg version="1.1" xmlns:xlink="http://www.w3.org/1999/xlink" width="29px" height="47px" xmlns="http://www.w3.org/2000/svg">
  <g transform="matrix(1 0 0 1 -1051 -388 )">
    <path d="M 28.5017182130584 22.4168336673347  C 28.8339060710195 22.7307949231797  29 23.0918503674015  29 23.5  C 29 23.9081496325985  28.8339060710195 24.2692050768203  28.5017182130584 24.5831663326653  L 5.28178694158076 46.5290581162325  C 4.9495990836197 46.8430193720775  4.56758304696449 47  4.13573883161512 47  C 3.70389461626575 47  3.32187857961054 46.8430193720775  2.98969072164948 46.5290581162325  L 0.498281786941581 44.1743486973948  C 0.166093928980527 43.8603874415498  0 43.499331997328  0 43.0911823647295  C 0 42.6830327321309  0.166093928980527 42.3219772879092  0.498281786941581 42.0080160320641  L 20.0807560137457 23.5  L 0.498281786941581 4.99198396793587  C 0.166093928980527 4.67802271209085  0 4.31696726786907  0 3.90881763527054  C 0 3.500668002672  0.166093928980527 3.13961255845023  0.498281786941581 2.82565130260521  L 2.98969072164948 0.470941883767536  C 3.32187857961054 0.15698062792251  3.70389461626575 0  4.13573883161512 0  C 4.56758304696449 0  4.9495990836197 0.15698062792251  5.28178694158076 0.470941883767536  L 28.5017182130584 22.4168336673347  Z " fill-rule="nonzero" fill="#8389bd" stroke="none" transform="matrix(1 0 0 1 1051 388 )" />
  </g>
</svg>