<?xml version="1.0" encoding="utf-8"?>
<svg version="1.1" xmlns:xlink="http://www.w3.org/1999/xlink" width="29px" height="47px" xmlns="http://www.w3.org/2000/svg">
  <g transform="matrix(1 0 0 1 -238 -395 )">
    <path d="M 28.5017182130584 2.82565130260521  C 28.8339060710195 3.13961255845023  29 3.500668002672  29 3.90881763527054  C 29 4.31696726786907  28.8339060710195 4.67802271209085  28.5017182130584 4.99198396793587  L 8.9192439862543 23.5  L 28.5017182130584 42.0080160320641  C 28.8339060710195 42.3219772879092  29 42.6830327321309  29 43.0911823647295  C 29 43.499331997328  28.8339060710195 43.8603874415498  28.5017182130584 44.1743486973948  L 26.0103092783505 46.5290581162325  C 25.6781214203895 46.8430193720775  25.2961053837343 47  24.8642611683849 47  C 24.4324169530355 47  24.0504009163803 46.8430193720775  23.7182130584192 46.5290581162325  L 0.498281786941581 24.5831663326653  C 0.166093928980527 24.2692050768203  0 23.9081496325985  0 23.5  C 0 23.0918503674015  0.166093928980527 22.7307949231797  0.498281786941581 22.4168336673347  L 23.7182130584192 0.470941883767536  C 24.0504009163803 0.15698062792251  24.4324169530355 0  24.8642611683849 0  C 25.2961053837343 0  25.6781214203895 0.15698062792251  26.0103092783505 0.470941883767536  L 28.5017182130584 2.82565130260521  Z " fill-rule="nonzero" fill="#8389bd" stroke="none" transform="matrix(1 0 0 1 238 395 )" />
  </g>
</svg>