<?xml version="1.0" encoding="utf-8"?>
<svg version="1.1" xmlns:xlink="http://www.w3.org/1999/xlink" width="10px" height="10px" xmlns="http://www.w3.org/2000/svg">
  <g transform="matrix(1 0 0 1 -1316 -273 )">
    <path d="M 5.92132505175984 4.76953907815631  C 5.99033816425121 4.83633934535738  6.02484472049689 4.91315965263861  6.02484472049689 5  C 6.02484472049689 5.08684034736139  5.99033816425121 5.16366065464262  5.92132505175984 5.23046092184369  L 1.09730848861284 9.8997995991984  C 1.02829537612146 9.96659986639947  0.948930296756384 10  0.859213250517598 10  C 0.769496204278813 10  0.690131124913734 9.96659986639947  0.62111801242236 9.8997995991984  L 0.10351966873706 9.39879759519038  C 0.0345065562456867 9.33199732798931  0 9.25517702070808  0 9.16833667334669  C 0 9.0814963259853  0.0345065562456867 9.00467601870407  0.10351966873706 8.93787575150301  L 4.17184265010352 5  L 0.10351966873706 1.06212424849699  C 0.0345065562456867 0.995323981295925  0 0.918503674014696  0 0.831663326653307  C 0 0.744822979291916  0.0345065562456867 0.668002672010687  0.10351966873706 0.601202404809619  L 0.62111801242236 0.100200400801603  C 0.690131124913734 0.0334001336005341  0.769496204278813 0  0.859213250517598 0  C 0.948930296756384 0  1.02829537612146 0.0334001336005341  1.09730848861284 0.100200400801603  L 5.92132505175984 4.76953907815631  Z M 9.89648033126294 4.76953907815631  C 9.96549344375431 4.83633934535738  10 4.91315965263861  10 5  C 10 5.08684034736139  9.96549344375431 5.16366065464262  9.89648033126294 5.23046092184369  L 5.07246376811594 9.8997995991984  C 5.00345065562457 9.96659986639947  4.92408557625949 10  4.8343685300207 10  C 4.74465148378192 10  4.66528640441684 9.96659986639947  4.59627329192547 9.8997995991984  L 4.07867494824017 9.39879759519038  C 4.00966183574879 9.33199732798931  3.97515527950311 9.25517702070808  3.97515527950311 9.16833667334669  C 3.97515527950311 9.0814963259853  4.00966183574879 9.00467601870407  4.07867494824017 8.93787575150301  L 8.14699792960663 5  L 4.07867494824017 1.06212424849699  C 4.00966183574879 0.995323981295925  3.97515527950311 0.918503674014696  3.97515527950311 0.831663326653307  C 3.97515527950311 0.744822979291916  4.00966183574879 0.668002672010687  4.07867494824017 0.601202404809619  L 4.59627329192547 0.100200400801603  C 4.66528640441684 0.0334001336005341  4.74465148378192 0  4.8343685300207 0  C 4.92408557625949 0  5.00345065562457 0.0334001336005341  5.07246376811594 0.100200400801603  L 9.89648033126294 4.76953907815631  Z " fill-rule="nonzero" fill="#000000" stroke="none" transform="matrix(1 0 0 1 1316 273 )" />
  </g>
</svg>