<?xml version="1.0" encoding="utf-8"?>
<svg version="1.1" xmlns:xlink="http://www.w3.org/1999/xlink" width="31px" height="24px" xmlns="http://www.w3.org/2000/svg">
  <g transform="matrix(1 0 0 1 -993 -17 )">
    <path d="M 11.2151442307692 20.2840909090909  C 11.6870993589744 20.7159090909091  11.9230769230769 21.2272727272727  11.9230769230769 21.8181818181818  C 11.9230769230769 22.4090909090909  11.6870993589744 22.9204545454545  11.2151442307692 23.3522727272727  C 10.7431891025641 23.7840909090909  10.1842948717949 24  9.53846153846154 24  C 8.89262820512821 24  8.33373397435898 23.7840909090909  7.86177884615385 23.3522727272727  C 7.38982371794872 22.9204545454545  7.15384615384615 22.4090909090909  7.15384615384615 21.8181818181818  C 7.15384615384615 21.2272727272727  7.38982371794872 20.7159090909091  7.86177884615385 20.2840909090909  C 8.33373397435898 19.8522727272727  8.89262820512821 19.6363636363636  9.53846153846154 19.6363636363636  C 10.1842948717949 19.6363636363636  10.7431891025641 19.8522727272727  11.2151442307692 20.2840909090909  Z M 27.9074519230769 20.2840909090909  C 28.379407051282 20.7159090909091  28.6153846153846 21.2272727272727  28.6153846153846 21.8181818181818  C 28.6153846153846 22.4090909090909  28.379407051282 22.9204545454545  27.9074519230769 23.3522727272727  C 27.4354967948718 23.7840909090909  26.8766025641026 24  26.2307692307692 24  C 25.5849358974359 24  25.0260416666667 23.7840909090909  24.5540865384615 23.3522727272727  C 24.0821314102564 22.9204545454545  23.8461538461538 22.4090909090909  23.8461538461538 21.8181818181818  C 23.8461538461538 21.2272727272727  24.0821314102564 20.7159090909091  24.5540865384615 20.2840909090909  C 25.0260416666667 19.8522727272727  25.5849358974359 19.6363636363636  26.2307692307692 19.6363636363636  C 26.8766025641026 19.6363636363636  27.4354967948718 19.8522727272727  27.9074519230769 20.2840909090909  Z M 30.6460336538462 2.50568181818182  C 30.8820112179487 2.72159090909091  31 2.97727272727272  31 3.27272727272727  L 31 12  C 31 12.2727272727273  30.8975360576923 12.5142045454545  30.6926081730769 12.7244318181818  C 30.4876802884615 12.9346590909091  30.2361778846154 13.0568181818182  29.9381009615385 13.0909090909091  L 10.4885817307692 15.1704545454545  C 10.6500400641026 15.8522727272727  10.7307692307692 16.25  10.7307692307692 16.3636363636364  C 10.7307692307692 16.5454545454545  10.5817307692308 16.9090909090909  10.2836538461538 17  L 27.4230769230769 17  C 27.7459935897436 17.4545454545455  28.0254407051282 17.5625  28.2614182692308 17.7784090909091  C 28.4973958333333 17.9943181818182  28.6153846153846 18.25  28.6153846153846 18.5454545454545  C 28.6153846153846 18.8409090909091  28.4973958333333 19.0965909090909  28.2614182692308 19.3125  C 28.0254407051282 19.5284090909091  27.7459935897436 19.6363636363636  27.4230769230769 19.6363636363636  L 8.34615384615384 19.6363636363636  C 8.02323717948718 19.6363636363636  7.74379006410256 19.5284090909091  7.5078125 19.3125  C 7.27183493589744 19.0965909090909  7.15384615384615 18.8409090909091  7.15384615384615 18.5454545454545  C 7.15384615384615 18.4204545454545  7.20352564102564 18.2414772727273  7.30288461538462 18.0085227272727  C 7.40224358974359 17.7755681818182  7.50160256410256 17.5710227272727  7.60096153846154 17.3948863636364  C 7.70032051282051 17.21875  7.83383413461539 16.9914772727273  8.00150240384616 16.7130681818182  C 8.16917067307692 16.4346590909091  8.26542467948718 16.2670454545455  8.29026442307692 16.2102272727273  L 4.99278846153846 2.18181818181818  L 1.19230769230769 2.18181818181818  C 0.869391025641026 2.18181818181818  0.58994391025641 2.07386363636363  0.353966346153846 1.85795454545454  C 0.117988782051282 1.64204545454545  0 1.38636363636364  0 1.09090909090909  C 0 0.795454545454544  0.117988782051282 0.539772727272724  0.353966346153846 0.323863636363638  C 0.58994391025641 0.107954545454543  0.869391025641026 0  1.19230769230769 0  L 5.96153846153846 0  C 6.16025641025641 0  6.33723958333333 0.0369318181818166  6.49248798076923 0.110795454545455  C 6.64773637820513 0.184659090909091  6.76883012820513 0.272727272727272  6.85576923076923 0.375  C 6.94270833333333 0.477272727272728  7.0234375 0.616477272727269  7.09795673076923 0.792613636363638  C 7.17247596153846 0.968749999999998  7.22215544871795 1.11647727272727  7.24699519230769 1.23579545454546  C 7.27183493589744 1.35511363636364  7.30598958333333 1.52272727272727  7.34945913461539 1.73863636363636  C 7.39292868589744 1.95454545454545  7.4208733974359 2.10227272727273  7.43329326923077 2.18181818181818  L 29.8076923076923 2.18181818181818  C 30.130608974359 2.18181818181818  30.4100560897436 2.28977272727273  30.6460336538462 2.50568181818182  Z " fill-rule="nonzero" fill="#8389bd" stroke="none" transform="matrix(1 0 0 1 993 17 )" />
  </g>
</svg>