<?xml version="1.0" encoding="utf-8"?>
<svg version="1.1" xmlns:xlink="http://www.w3.org/1999/xlink" width="23px" height="25px" xmlns="http://www.w3.org/2000/svg">
  <g transform="matrix(1 0 0 1 -289 -266 )">
    <path d="M 22.847265625 18.0745442708333  C 22.9490885416667 18.8937717013889  23 19.7645399305556  23 20.6868489583333  C 23 21.8695746527778  22.6256510416667 22.8841145833333  21.876953125 23.73046875  C 21.1282552083333 24.5768229166667  20.2268229166667 25  19.17265625 25  L 3.82734375 25  C 2.77317708333333 25  1.87174479166667 24.5768229166667  1.123046875 23.73046875  C 0.374348958333333 22.8841145833333  0 21.8695746527778  0 20.6868489583333  C 0 19.7645399305556  0.0509114583333335 18.8937717013889  0.152734375 18.0745442708333  C 0.254557291666667 17.2553168402778  0.443229166666667 16.4306640625  0.71875 15.6005859375  C 0.994270833333334 14.7705078125  1.34466145833333 14.0597873263889  1.769921875 13.4684244791667  C 2.19518229166667 12.8770616319444  2.758203125 12.3942057291667  3.458984375 12.0198567708333  C 4.159765625 11.6455078125  4.96536458333333 11.4583333333333  5.87578125 11.4583333333333  C 7.44505208333333 12.8472222222222  9.31979166666667 13.5416666666667  11.5 13.5416666666667  C 13.6802083333333 13.5416666666667  15.5549479166667 12.8472222222222  17.12421875 11.4583333333333  C 18.0346354166667 11.4583333333333  18.840234375 11.6455078125  19.541015625 12.0198567708333  C 20.241796875 12.3942057291667  20.8048177083333 12.8770616319444  21.230078125 13.4684244791667  C 21.6553385416667 14.0597873263889  22.0057291666667 14.7705078125  22.28125 15.6005859375  C 22.5567708333333 16.4306640625  22.7454427083333 17.2553168402778  22.847265625 18.0745442708333  Z M 16.378515625 1.8310546875  C 17.726171875 3.0517578125  18.4 4.52473958333333  18.4 6.25  C 18.4 7.97526041666667  17.726171875 9.4482421875  16.378515625 10.6689453125  C 15.030859375 11.8896484375  13.4046875 12.5  11.5 12.5  C 9.5953125 12.5  7.969140625 11.8896484375  6.621484375 10.6689453125  C 5.273828125 9.4482421875  4.6 7.97526041666667  4.6 6.25  C 4.6 4.52473958333333  5.273828125 3.0517578125  6.621484375 1.8310546875  C 7.969140625 0.6103515625  9.5953125 0  11.5 0  C 13.4046875 0  15.030859375 0.6103515625  16.378515625 1.8310546875  Z " fill-rule="nonzero" fill="#9b9fc6" stroke="none" transform="matrix(1 0 0 1 289 266 )" />
  </g>
</svg>