<?xml version="1.0" encoding="utf-8"?>
<svg version="1.1" xmlns:xlink="http://www.w3.org/1999/xlink" width="12px" height="20px" xmlns="http://www.w3.org/2000/svg">
  <g transform="matrix(1 0 0 1 -589 -222 )">
    <path d="M 6.8828125 18.8828125  C 7.12760416666667 18.6380208333333  7.25 18.34375  7.25 18  C 7.25 17.65625  7.12760416666667 17.3619791666667  6.8828125 17.1171875  C 6.63802083333333 16.8723958333333  6.34375 16.75  6 16.75  C 5.65625 16.75  5.36197916666667 16.8723958333333  5.1171875 17.1171875  C 4.87239583333333 17.3619791666667  4.75 17.65625  4.75 18  C 4.75 18.34375  4.87239583333333 18.6380208333333  5.1171875 18.8828125  C 5.36197916666667 19.1276041666667  5.65625 19.25  6 19.25  C 6.34375 19.25  6.63802083333333 19.1276041666667  6.8828125 18.8828125  Z M 10.3515625 15.8515625  C 10.4505208333333 15.7526041666667  10.5 15.6354166666667  10.5 15.5  L 10.5 4.5  C 10.5 4.36458333333333  10.4505208333333 4.24739583333333  10.3515625 4.1484375  C 10.2526041666667 4.04947916666667  10.1354166666667 4  10 4  L 2 4  C 1.86458333333333 4  1.74739583333333 4.04947916666667  1.6484375 4.1484375  C 1.54947916666667 4.24739583333333  1.5 4.36458333333333  1.5 4.5  L 1.5 15.5  C 1.5 15.6354166666667  1.54947916666667 15.7526041666667  1.6484375 15.8515625  C 1.74739583333333 15.9505208333333  1.86458333333333 16  2 16  L 10 16  C 10.1354166666667 16  10.2526041666667 15.9505208333333  10.3515625 15.8515625  Z M 7.25 2.5  C 7.41666666666667 2.5  7.5 2.41666666666666  7.5 2.25  C 7.5 2.08333333333333  7.41666666666667 2  7.25 2  L 4.75 2  C 4.58333333333333 2  4.5 2.08333333333333  4.5 2.25  C 4.5 2.41666666666666  4.58333333333333 2.5  4.75 2.5  L 7.25 2.5  Z M 11.40625 0.59375  C 11.8020833333333 0.989583333333333  12 1.45833333333333  12 2  L 12 18  C 12 18.5416666666667  11.8020833333333 19.0104166666667  11.40625 19.40625  C 11.0104166666667 19.8020833333333  10.5416666666667 20  10 20  L 2 20  C 1.45833333333333 20  0.989583333333333 19.8020833333333  0.59375 19.40625  C 0.197916666666667 19.0104166666667  0 18.5416666666667  0 18  L 0 2  C 0 1.45833333333333  0.197916666666667 0.989583333333333  0.59375 0.59375  C 0.989583333333333 0.197916666666664  1.45833333333333 0  2 0  L 10 0  C 10.5416666666667 0  11.0104166666667 0.197916666666664  11.40625 0.59375  Z " fill-rule="nonzero" fill="#9b9fc6" stroke="none" transform="matrix(1 0 0 1 589 222 )" />
  </g>
</svg>