<?xml version="1.0" encoding="utf-8"?>
<svg version="1.1" xmlns:xlink="http://www.w3.org/1999/xlink" width="25px" height="23px" xmlns="http://www.w3.org/2000/svg">
  <g transform="matrix(1 0 0 1 -286 -377 )">
    <path d="M 11.5270350564468 7.51256281407035  C 12.0816003168944 6.97319932998325  12.3588829471182 6.31825795644891  12.3588829471182 5.54773869346734  C 12.3588829471182 4.77721943048576  12.0816003168944 4.12227805695142  11.5270350564468 3.58291457286432  C 10.9724697959992 3.04355108877722  10.2990691225985 2.77386934673367  9.5068330362448 2.77386934673367  C 8.71459694989107 2.77386934673367  8.04119627649039 3.04355108877722  7.48663101604278 3.58291457286432  C 6.93206575559517 4.12227805695142  6.65478312537136 4.77721943048576  6.65478312537136 5.54773869346734  C 6.65478312537136 5.95226130653266  6.74886116062587 6.35196817420435  6.93701723113488 6.74685929648241  C 6.53099623687859 6.56386097152429  6.12002376708259 6.47236180904523  5.70409982174688 6.47236180904523  C 4.91186373539315 6.47236180904523  4.23846306199247 6.74204355108877  3.68389780154486 7.28140703517588  C 3.12933254109725 7.82077051926298  2.85204991087344 8.47571189279732  2.85204991087344 9.24623115577889  C 2.85204991087344 10.0167504187605  3.12933254109725 10.6716917922948  3.68389780154486 11.2110552763819  C 4.23846306199247 11.750418760469  4.91186373539315 12.0201005025126  5.70409982174688 12.0201005025126  C 6.49633590810061 12.0201005025126  7.16973658150129 11.750418760469  7.7243018419489 11.2110552763819  C 8.27886710239651 10.6716917922948  8.55614973262032 10.0167504187605  8.55614973262032 9.24623115577889  C 8.55614973262032 8.84170854271357  8.46207169736582 8.44200167504187  8.2739156268568 8.04711055276382  C 8.67993662111309 8.23010887772194  9.09090909090909 8.321608040201  9.5068330362448 8.321608040201  C 10.2990691225985 8.321608040201  10.9724697959992 8.05192629815745  11.5270350564468 7.51256281407035  Z M 24.5766488413547 15.126256281407  C 24.8588829471182 15.4440954773869  25 15.641541038526  25 15.7185929648241  C 25 15.8823283082077  24.7573776985542 16.2001675041876  24.2721330956625 16.6721105527638  C 23.7868884927708 17.14405360134  23.4600911071499 17.3800251256281  23.2917409387998 17.3800251256281  C 23.202614379085 17.3800251256281  23.0614973262032 17.30297319933  22.8683897801545 17.1488693467337  C 22.6752822341058 16.9947654941374  22.4945533769063 16.8358458961474  22.3262032085562 16.6721105527638  C 22.157853040206 16.5083752093802  21.9672212319271 16.3157453936348  21.7543077837195 16.0942211055276  C 21.541394335512 15.8726968174204  21.4200831847891 15.7474874371859  21.3903743315508 15.7185929648241  L 19.9643493761141 17.105527638191  L 23.2323232323232 20.28391959799  C 23.509605862547 20.5536013400335  23.6482471776589 20.8810720268007  23.6482471776589 21.2663316582915  C 23.6482471776589 21.6708542713568  23.4551396316102 22.0609296482412  23.0689245395128 22.4365577889447  C 22.6827094474153 22.8121859296482  22.2816399286988 23  21.865715983363 23  C 21.4695979401862 23  21.1328976034858 22.8651591289782  20.855614973262 22.5954773869347  L 10.8882947118241 12.9013819095477  C 9.14537532184591 14.1631072026801  7.33808674985146 14.7939698492462  5.46642899584076 14.7939698492462  C 3.85224796989503 14.7939698492462  2.5376312141018 14.3003559463987  1.52257872846108 13.3131281407035  C 0.507526242820361 12.3259003350084  0 11.0473199329983  0 9.47738693467337  C 0 7.93634840871022  0.470390176272529 6.42902010050251  1.41117052881759 4.95540201005025  C 2.35195088136265 3.48178391959799  3.57991681521093 2.28747906197655  5.09506833036245 1.37248743718593  C 6.61021984551396 0.457495812395309  8.16003168944346 0  9.74450386215092 0  C 11.3586848880967 0  12.6733016438899 0.493613902847569  13.6883541295306 1.48084170854271  C 14.7034066151713 2.46806951423785  15.2109328579917 3.7466499162479  15.2109328579917 5.31658291457286  C 15.2109328579917 7.13693467336684  14.5622895622896 8.89468174204355  13.2650029708853 10.589824120603  L 18.5383244206774 15.7185929648241  L 19.9643493761141 14.3316582914573  C 19.9346405228758 14.3027638190955  19.8059021588433 14.1847780569514  19.5781342840166 13.9777010050251  C 19.3503664091899 13.7706239530988  19.1523073876015 13.5852177554439  18.9839572192513 13.4214824120603  C 18.8156070509012 13.2577470686767  18.6522083580907 13.081972361809  18.49376114082 12.8941582914573  C 18.3353139235492 12.7063442211055  18.2560903149138 12.5690954773869  18.2560903149138 12.4824120603015  C 18.2560903149138 12.3186767169179  18.4987126163597 12.000837520938  18.9839572192513 11.5288944723618  C 19.469201822143 11.0569514237856  19.7959992077639 10.8209798994975  19.9643493761141 10.8209798994975  C 20.0930877401466 10.8209798994975  20.2069716775599 10.8691373534338  20.3060011883541 10.9654522613065  C 20.3654188948307 11.0232412060302  20.5931867696574 11.2375418760469  20.9893048128342 11.6083542713568  C 21.3854228560111 11.9791666666667  21.7914438502674 12.3620184254606  22.2073677956031 12.7569095477387  C 22.6232917409388 13.1518006700167  23.0515943751238 13.5659547738693  23.4922756981581 13.9993718592965  C 23.9329570211923 14.4327889447236  24.2944147355912 14.8084170854271  24.5766488413547 15.126256281407  Z " fill-rule="nonzero" fill="#abafd6" stroke="none" transform="matrix(1 0 0 1 286 377 )" />
  </g>
</svg>